<?xml version="1.0" encoding="UTF-8"?>
<svg id="Layer_1" data-name="Layer 1" xmlns="http://www.w3.org/2000/svg" viewBox="0 0 12.78 12.87">
  <defs>
    <style>
      .cls-1 {
        fill: #fcefec;
      }

      .cls-2 {
        fill: #e7d2d3;
      }

      .cls-3 {
        fill: #eeb8a9;
      }

      .cls-4 {
        fill: #e4bcb3;
      }

      .cls-5 {
        fill: #fef3ed;
      }

      .cls-6 {
        fill: #e1aea5;
      }

      .cls-7 {
        fill: #f9dfd7;
      }

      .cls-8 {
        fill: #f8d6ca;
      }

      .cls-9 {
        fill: #fbdfd4;
      }

      .cls-10 {
        fill: #f0cfc8;
      }

      .cls-11 {
        fill: #f9d5cb;
      }

      .cls-12 {
        fill: #6e5970;
      }

      .cls-13 {
        fill: #edab9d;
      }

      .cls-14 {
        fill: #f6cac0;
      }

      .cls-15 {
        fill: #f7d3c6;
      }

      .cls-16 {
        fill: #a2696a;
      }

      .cls-17 {
        fill: #f9dcd1;
      }

      .cls-18 {
        fill: #bb918d;
      }

      .cls-19 {
        fill: #b29498;
      }

      .cls-20 {
        fill: #ce9e9d;
      }

      .cls-21 {
        fill: #f8c4b9;
      }

      .cls-22 {
        fill: #b28589;
      }

      .cls-23 {
        fill: #eabcb0;
      }

      .cls-24 {
        fill: #fce0d5;
      }

      .cls-25 {
        fill: #fbe3d6;
      }

      .cls-26 {
        fill: #eaaea6;
      }

      .cls-27 {
        fill: #6e648f;
      }

      .cls-28 {
        fill: #fce1d6;
      }

      .cls-29 {
        fill: #f6dfd5;
      }

      .cls-30 {
        fill: #fbdcd0;
      }

      .cls-31 {
        fill: #f3d0c6;
      }

      .cls-32 {
        fill: #f1bbad;
      }

      .cls-33 {
        fill: #d4a8ab;
      }

      .cls-34 {
        fill: #eac1b9;
      }

      .cls-35 {
        fill: #fae2d8;
      }

      .cls-36 {
        fill: #e8ad9c;
      }

      .cls-37 {
        fill: #fad5cb;
      }

      .cls-38 {
        fill: #f5dfd7;
      }

      .cls-39 {
        fill: #9e838c;
      }

      .cls-40 {
        fill: #4e436d;
      }

      .cls-41 {
        fill: #b19eb7;
      }

      .cls-42 {
        fill: #f9e1d6;
      }

      .cls-43 {
        fill: #f9d9ce;
      }

      .cls-44 {
        fill: #f7d6ca;
      }

      .cls-45 {
        fill: #f09d9c;
      }

      .cls-46 {
        fill: #795761;
      }

      .cls-47 {
        fill: #f8d5c8;
      }

      .cls-48 {
        fill: #9e7785;
      }

      .cls-49 {
        fill: #e1b2ba;
      }

      .cls-50 {
        fill: #fbe8e3;
      }

      .cls-51 {
        fill: #e7b5ac;
      }

      .cls-52 {
        fill: #edbfb0;
      }

      .cls-53 {
        fill: #dba799;
      }

      .cls-54 {
        fill: #fbe8db;
      }

      .cls-55 {
        fill: #f0d8e1;
      }

      .cls-56 {
        fill: #f8dacf;
      }

      .cls-57 {
        fill: #f0b4a8;
      }

      .cls-58 {
        fill: #241945;
      }

      .cls-59 {
        fill: #eac7c3;
      }

      .cls-60 {
        fill: #cea3a5;
      }

      .cls-61 {
        fill: #fcdcd0;
      }

      .cls-62 {
        fill: #f4cbba;
      }

      .cls-63 {
        fill: #edb6ae;
      }

      .cls-64 {
        fill: #f0cdc3;
      }

      .cls-65 {
        fill: #f7d8cd;
      }

      .cls-66 {
        fill: #f8d3c7;
      }

      .cls-67 {
        fill: #f3cfc4;
      }

      .cls-68 {
        fill: #fcddd0;
      }

      .cls-69 {
        fill: #f9ded3;
      }

      .cls-70 {
        fill: #fef2ed;
      }

      .cls-71 {
        fill: #f8d4c9;
      }

      .cls-72 {
        fill: #fdeef0;
      }

      .cls-73 {
        fill: #f7d8cb;
      }

      .cls-74 {
        fill: #936469;
      }

      .cls-75 {
        fill: #fdede8;
      }

      .cls-76 {
        fill: #f4cdc2;
      }

      .cls-77 {
        fill: #f2beb1;
      }

      .cls-78 {
        fill: #fdedea;
      }

      .cls-79 {
        fill: #fbe5db;
      }

      .cls-80 {
        fill: #f7dee3;
      }

      .cls-81 {
        fill: #fadfd4;
      }

      .cls-82 {
        fill: #f9c4b6;
      }

      .cls-83 {
        fill: #fbddcf;
      }

      .cls-84 {
        fill: #a78a93;
      }

      .cls-85 {
        fill: #dcc5bd;
      }

      .cls-86 {
        fill: #f9c8bf;
      }

      .cls-87 {
        fill: #ebbab1;
      }

      .cls-88 {
        fill: #d7afa2;
      }

      .cls-89 {
        fill: #e3c9bd;
      }

      .cls-90 {
        fill: #f4b7a6;
      }

      .cls-91 {
        fill: #aa9093;
      }

      .cls-92 {
        fill: #fae0d7;
      }

      .cls-93 {
        fill: #57476d;
      }

      .cls-94 {
        fill: #f7d5c9;
      }

      .cls-95 {
        fill: #fae3da;
      }

      .cls-96 {
        fill: #fadace;
      }

      .cls-97 {
        fill: #f7dad0;
      }

      .cls-98 {
        fill: #fff3ee;
      }

      .cls-99 {
        fill: #f7d9cc;
      }

      .cls-100 {
        fill: #e7b3ab;
      }

      .cls-101 {
        fill: #be8073;
      }

      .cls-102 {
        fill: #ebc2b8;
      }

      .cls-103 {
        fill: #fdf3f1;
      }

      .cls-104 {
        fill: #e6b5b6;
      }

      .cls-105 {
        fill: #edc7bb;
      }

      .cls-106 {
        fill: #e7b19f;
      }

      .cls-107 {
        fill: #f5ccc1;
      }

      .cls-108 {
        fill: #efd9cf;
      }

      .cls-109 {
        fill: #ebbfb7;
      }

      .cls-110 {
        fill: #fbded3;
      }

      .cls-111 {
        fill: #ddb4ab;
      }

      .cls-112 {
        fill: #ddb5aa;
      }

      .cls-113 {
        fill: #f6d8ce;
      }

      .cls-114 {
        fill: #fef1ec;
      }

      .cls-115 {
        fill: #f1c7bc;
      }

      .cls-116 {
        fill: #fbeced;
      }

      .cls-117 {
        fill: #e5b6ab;
      }

      .cls-118 {
        fill: #f3b9a7;
      }

      .cls-119 {
        fill: #f6c7bd;
      }

      .cls-120 {
        fill: #f0b197;
      }

      .cls-121 {
        fill: #fcdfd2;
      }

      .cls-122 {
        fill: #f5d0c3;
      }

      .cls-123 {
        fill: #f5cfc2;
      }

      .cls-124 {
        fill: #fcefe5;
      }

      .cls-125 {
        fill: #f6e7e9;
      }

      .cls-126 {
        fill: #f3cdc7;
      }

      .cls-127 {
        fill: #f1bfb6;
      }

      .cls-128 {
        fill: #f4cabc;
      }

      .cls-129 {
        fill: #f3a99f;
      }

      .cls-130 {
        fill: #fae0d4;
      }

      .cls-131 {
        fill: #edcdc4;
      }

      .cls-132 {
        fill: #edc5cf;
      }

      .cls-133 {
        fill: #83607e;
      }

      .cls-134 {
        fill: #ebbfb5;
      }

      .cls-135 {
        fill: #f9cec3;
      }

      .cls-136 {
        fill: #e69f8c;
      }

      .cls-137 {
        fill: #f4c2b5;
      }

      .cls-138 {
        fill: #f2bcad;
      }

      .cls-139 {
        fill: #f4c9ce;
      }

      .cls-140 {
        fill: #f6cbbe;
      }

      .cls-141 {
        fill: #e4ab93;
      }

      .cls-142 {
        fill: #815c6c;
      }

      .cls-143 {
        fill: #f7cfc4;
      }

      .cls-144 {
        fill: #fae4da;
      }

      .cls-145 {
        fill: #fbe1d8;
      }

      .cls-146 {
        fill: #cdb2ac;
      }

      .cls-147 {
        fill: #ca9496;
      }

      .cls-148 {
        fill: #e6a994;
      }

      .cls-149 {
        fill: #f9d9cd;
      }

      .cls-150 {
        fill: #fbdace;
      }

      .cls-151 {
        fill: #f9e4d7;
      }

      .cls-152 {
        fill: #f9e2da;
      }

      .cls-153 {
        fill: #966e79;
      }

      .cls-154 {
        fill: #3d2952;
      }

      .cls-155 {
        fill: #f5bdb4;
      }

      .cls-156 {
        fill: #8782ac;
      }

      .cls-157 {
        fill: #f9e1d7;
      }

      .cls-158 {
        fill: #d9a8a4;
      }

      .cls-159 {
        fill: #efb8ad;
      }

      .cls-160 {
        fill: #faddd2;
      }

      .cls-161 {
        fill: #f3c7be;
      }

      .cls-162 {
        fill: #eccbcb;
      }

      .cls-163 {
        fill: #f1c4ba;
      }

      .cls-164 {
        fill: #47344e;
      }

      .cls-165 {
        fill: #e3aca6;
      }

      .cls-166 {
        fill: #f3c3b8;
      }

      .cls-167 {
        fill: #71536b;
      }

      .cls-168 {
        fill: #f6cbc0;
      }

      .cls-169 {
        fill: #f2cac1;
      }

      .cls-170 {
        fill: #e2b0a0;
      }

      .cls-171 {
        fill: #e6bfb2;
      }

      .cls-172 {
        fill: #fdedeb;
      }

      .cls-173 {
        fill: #dab1b3;
      }

      .cls-174 {
        fill: #f8d4c8;
      }

      .cls-175 {
        fill: #f9ded4;
      }

      .cls-176 {
        fill: #ad8b8c;
      }

      .cls-177 {
        fill: #67424c;
      }

      .cls-178 {
        fill: #eca491;
      }

      .cls-179 {
        fill: #f0ded9;
      }

      .cls-180 {
        fill: #f8d4c7;
      }

      .cls-181 {
        fill: #f6c9bc;
      }

      .cls-182 {
        fill: #d39996;
      }

      .cls-183 {
        fill: #cbaab0;
      }

      .cls-184 {
        fill: #f6c5b9;
      }

      .cls-185 {
        fill: #e8b4a8;
      }

      .cls-186 {
        fill: #f9d9cf;
      }

      .cls-187 {
        fill: #cca1a0;
      }

      .cls-188 {
        fill: #e7a796;
      }

      .cls-189 {
        fill: #f6e5e5;
      }

      .cls-190 {
        fill: #f5d7d0;
      }

      .cls-191 {
        fill: #f6d5c9;
      }

      .cls-192 {
        fill: #efd5d7;
      }

      .cls-193 {
        fill: #f8e0d8;
      }

      .cls-194 {
        fill: #ebcec4;
      }

      .cls-195 {
        fill: #ecbfb3;
      }

      .cls-196 {
        fill: #8a6775;
      }

      .cls-197 {
        fill: #fadbd0;
      }

      .cls-198 {
        fill: #e9c4b7;
      }

      .cls-199 {
        fill: #f7eae8;
      }

      .cls-200 {
        fill: #f7c9ba;
      }

      .cls-201 {
        fill: #dba8a0;
      }

      .cls-202 {
        fill: #6e5a76;
      }

      .cls-203 {
        fill: #7d6980;
      }

      .cls-204 {
        fill: #b99aa3;
      }

      .cls-205 {
        fill: #fbe6db;
      }

      .cls-206 {
        fill: #614d70;
      }

      .cls-207 {
        fill: #eeb7af;
      }

      .cls-208 {
        fill: #eac0b2;
      }

      .cls-209 {
        fill: #353261;
      }

      .cls-210 {
        fill: #ba8c8c;
      }

      .cls-211 {
        fill: #f9d7ca;
      }

      .cls-212 {
        fill: #fcddd1;
      }

      .cls-213 {
        fill: #e5c2b8;
      }

      .cls-214 {
        fill: #f1e3e2;
      }

      .cls-215 {
        fill: #f6c4b8;
      }

      .cls-216 {
        fill: #e9b7aa;
      }

      .cls-217 {
        fill: #f7ccc0;
      }

      .cls-218 {
        fill: #f3c9bc;
      }

      .cls-219 {
        fill: #735e73;
      }

      .cls-220 {
        fill: #604e64;
      }

      .cls-221 {
        fill: #f7d1c2;
      }

      .cls-222 {
        fill: #fbdfd7;
      }

      .cls-223 {
        fill: #f9e0d6;
      }

      .cls-224 {
        fill: #f6d0c5;
      }

      .cls-225 {
        fill: #f5daca;
      }

      .cls-226 {
        fill: #eccec7;
      }

      .cls-227 {
        fill: #f8d9cc;
      }

      .cls-228 {
        fill: #fae0d6;
      }

      .cls-229 {
        fill: #f5d7cf;
      }

      .cls-230 {
        fill: #f2d0c3;
      }

      .cls-231 {
        fill: #f5c7bb;
      }

      .cls-232 {
        fill: #f5ccc2;
      }

      .cls-233 {
        fill: #eac4be;
      }

      .cls-234 {
        fill: #f6d5d1;
      }

      .cls-235 {
        fill: #f0cbc0;
      }

      .cls-236 {
        fill: #f5c6b9;
      }

      .cls-237 {
        fill: #efb6a9;
      }

      .cls-238 {
        fill: #e0baad;
      }

      .cls-239 {
        fill: #ad99a6;
      }

      .cls-240 {
        fill: #ecbbad;
      }

      .cls-241 {
        fill: #f8d7ce;
      }

      .cls-242 {
        fill: #e0b3ab;
      }

      .cls-243 {
        fill: #e9cac4;
      }

      .cls-244 {
        fill: #997e8a;
      }

      .cls-245 {
        fill: #4f4571;
      }

      .cls-246 {
        fill: #f5cec1;
      }

      .cls-247 {
        fill: #7a5161;
      }

      .cls-248 {
        fill: #b390ab;
      }
    </style>
  </defs>
  <path class="cls-223" d="M1.59,4.77c.2.05.2.19,0,.26-.04-.11-.53.07-.51.1.21.24.28.49-.09.48l.07.17c.28.14.42.37.11.53.27.11.37.24.32.38.04.09,0,.37-.02.51,0,.02-.03.05-.05.07.12-.01.26-.05.41-.1l.16.09c.16-.15.3-.2.41-.16.17.23-.17.71-.47.51-.04.1-.11.19-.2.22-.04.07-.07.06-.09-.02-.41.05-.63-.05-.66-.3l-.15-.42c-.06-.04-.04-.13-.08-.17l-.08-.42c-.09-.18-.14-.35-.15-.5-.12-.11-.08-.16.07-.08.08-.15.09-.37-.11-.38-.05-.26-.06-.71.27-.63-.03-.17.04-.31.21-.19l.06-.1c.18.02.37.06.58.13Z"/>
  <path class="cls-99" d="M7.84,8.95c.06-.04.15-.04.26,0,.17.13.3.32.39.59.05-.02.08.04.1.16.04.1,0,.15,0,.25-.05.16-.08.33-.08.5-.02.13-.15.17-.24.07-.22,0-.22-.08-.01-.16-.07-.34-.32-.6-.74-.78l-.04-.22c-.15.17-.36.14-.41-.09-.16-.09-.31-.11-.44-.07l-.12-.16c-.1-.47.59-.21.87-.07.15-.08.36-.19.45-.03Z"/>
  <path class="cls-122" d="M12.01,7.69c.08.06.1.14,0,.17.13.35.21.71.25,1.09-.07.17.03.44-.25.5-.06.01-.12.09-.17.04-.03-.03-.06-.08-.08-.13-.26-.1-.38-.21-.33-.34-.06-.15-.01-.22.14-.18.02-.02-.06-.5-.27-.38-.02.01-.05.01-.08.01-.04,0-.08-.01-.12-.02-.16.28-.2-.06-.22-.29.26-.1.54-.16.82-.18l.06-.12c-.24,0,.01-.3.15-.25.04.01.06.07.1.08Z"/>
  <path class="cls-243" d="M1.17,8.94c.17.17.37.32.58.46l-.02.2c.08.22.13.33.37.43-.03.23,0,.36.11.4.08-.09.11-.1.14.02.14-.11.37-.1.42.08-.02.07-.05.07-.08,0l-.05.11c-.09-.07-.21-.08-.37-.04-.07.1-.32.18-.33,0-.21,0-.29-.07-.23-.23-.07-.02-.07-.05,0-.08-.16-.13-.25-.3-.28-.49-.09.07-.14.07-.15,0,.04-.06.11-.1.17-.15-.15-.12-.29-.15-.34-.28-.1-.01-.16-.07-.17-.18-.14-.11-.09-.22.18-.35.03-.07.06-.06.08.01.16-.02.16.05,0,.1Z"/>
  <path class="cls-113" d="M8.99,8.88l.21.15c.21-.05.42-.07.63-.05.13.17.3.29.5.36-.04-.08.05-.13.27-.16.08-.22.21-.35.4-.4.13-.07.25-.02.37.17.07-.03.09-.01.06.06.11.1.22.12.41.1-.04.11-.09.17-.08.25-.21.02-.48-.03-.67.09-.11.05-.19.05-.25,0-.13-.07-.29-.07-.42,0,.07.02.07.05,0,.08-.24.07-.51.09-.74-.02-.05,0-.12-.02-.18,0-.04-.11-.14-.13-.3-.06-.06-.04-.17,0-.22-.08l-.16-.1c-.18.13-.39-.12-.24-.3-.07-.06-.13-.25-.01-.26.12-.12.52-.02.41.19Z"/>
  <path class="cls-125" d="M1.64,7.82c0,.06-.07.1-.23.12-.05.08-.37.12-.41,0-.14-.02-.25-.04-.34-.08-.07-.02-.07-.05,0-.09.07,0,.15.01.2-.01.15-.08-.03-.49-.03-.65.15.1.13.33.28.47.16.15.42.07.53.24Z"/>
  <path class="cls-70" d="M11.48,5.11c-.07.27-.67.5-.38.91-.09.1-.38-.03-.34-.17-.12-.1-.21-.21-.26-.32,0-.06.91-.7.98-.42Z"/>
  <path class="cls-64" d="M11.76,6.94c-.04.12-.13.09-.26-.08-.32.01-.74-.45-.41-.66-.06-.03-.05-.06,0-.09.17.03.61.53.67.83Z"/>
  <path class="cls-9" d="M11.76,6.94c.04.22.25.43.15.67-.03.08-.19.13-.15.25.05.18-.25.2-.25.02-.24-.28-.2-.72,0-1.02.09-.02.18.06.26.08Z"/>
  <path class="cls-172" d="M8.58,8.95c.08.19.32.22.4.4-.1-.04-.23-.09-.28,0s-.16.24-.11.33c-.06-.03-.08-.1-.1-.16-.14-.03-.25-.45-.08-.5-.18-.18-.09-.25.09-.08.02-.07.05-.07.08,0Z"/>
  <path class="cls-190" d="M12.18,8.02c.04.06.05.19.08.25.07.22.04.45,0,.67-.14-.22-.04-.51-.32-.6.02-.16.12-.34.07-.48.06-.08.11-.02.17.17Z"/>
  <path class="cls-131" d="M10.76,5.85c.1.07.21.14.34.17,0,.03,0,.06,0,.08s-.02.07,0,.09c-.18.17-.39.08-.4-.17-.22.11-.32.07-.28-.17-.22-.03-.2-.08,0-.14.08-.21.19-.16.34.14Z"/>
  <path class="cls-226" d="M9.51,9.5c-.12.02-.21,0-.3-.06.01-.11.06-.15.12-.15.12,0,.32-.05.38.08-.06.08-.14.08-.2.13Z"/>
  <path class="cls-114" d="M11.84,4.77c-.17-.01-.18-.08-.02-.14-.19-.2-.11-.35.16-.33.07-.09.09-.22.2-.28-.04.3-.12.57-.34.75Z"/>
  <path class="cls-179" d="M11.59,2.85s-.07.05-.08.08c-.07-.2-.13-.4-.16-.61l.08-.05s0-.06,0-.08c.17.17.17.44.17.67Z"/>
  <path class="cls-103" d="M10.43,9.53c-.19.14-.58.17-.74-.02.25.03.49.01.74.02Z"/>
  <path class="cls-199" d="M8.59,10.53c-.08.03-.11,0-.08-.08-.12-.16-.05-.37.08-.5v.58Z"/>
  <path class="cls-1" d="M12.26,8.94c0-.22-.03-.45,0-.67.17.18.08.46,0,.67Z"/>
  <path class="cls-38" d="M10.84,9.44h.25c-.2.13-.42.09-.67.08v-.08c.13-.07.29-.07.42,0Z"/>
  <path class="cls-98" d="M11.84,4.77c-.14.11-.18.26-.37.34-.25-.27.09-.52.37-.34Z"/>
  <path class="cls-5" d="M.75,6.94c-.11-.11-.09-.27-.08-.42.09.13.09.27.08.42Z"/>
  <path class="cls-78" d="M12.18,8.02l-.17-.17c-.02-.05.01-.11,0-.17.15.04.17.2.17.33Z"/>
  <path class="cls-35" d="M10.78,3.51c.23.02.46,0,.64-.16.44-.26.32.4.25.67-.12-.04-.17,0-.17.14-.35,0-.71-.03-1.06-.08-.13.15-.47.19-.66.1-.15.13-.37.14-.69.03.07-.17.18-.31.34-.44-.2-.16-.04-.31.16-.16.17-.09.88-.43,1.02-.4.08.07.14.17.16.3Z"/>
  <path class="cls-66" d="M6.36,3.27c.19-.04.34-.06.42.16.2-.36.4-.44.6-.22.07-.18.1-.12.14.06l.09.06.56-.31.1.07s.05.07.08.11c.24.04.23.34,0,.39-.01.2-.22.28-.39.19-.02.06-.09.12-.21.15-.09.22-.18.18-.14-.06-.37-.09-.59.38-.67.69l-.17.05c-.02.07-.05.07-.08,0-.12.03-.14-.08-.07-.17-.07-.01-.07-.04,0-.07.13-.42.13-.57-.02-.45l-.15-.15c-.18-.06-.37-.2-.4-.44-.21.28-.42.13-.28-.16.02-.18.11-.35.25-.51.4-.14.52.06.36.62Z"/>
  <path class="cls-17" d="M11.98,4.3c-.07.1-.14.2-.16.33-.13.26-.59.09-.8-.05-.17.02-.35-.06-.55-.23-.31.07-.55.05-.74-.06l.05-.11c.1-.12.29-.03.44-.07.3-.45.07,0,1.12-.15.05,0,.2.09.24.04-.19.26.13-.32.12-.45,0-.18-.14-.25-.28-.19,0-.03.02-.17.08-.16.22.03.27.19.31.34s.06.28-.11.44c.16.08.14.3.29.34Z"/>
  <path class="cls-180" d="M9.26,4.6c.05-.16.11-.17.19-.04l.56.13c.42-.29.2.37,0,.58-.1.07-.25.11-.44.14-.04.08-.09.09-.15.01-.12-.21-.26-.25-.51-.25.03.2-.17.18-.22,0-.29-.18-.16-.48.13-.55.14-.01.29-.04.44-.03Z"/>
  <path class="cls-130" d="M9.43,3.77s.08.1.07.14c0,.07-.07.13-.21.13-.45.29.37.03.48.15.07.07.1.14.2.17.08.02.6-.3,1.04.23.09.46-.47.29-.63-.01-.2,0-.32.04-.37.13-.26.04-.5-.08-.75-.1-.06-.09-.18-.05-.28-.13.17-.15.31-.1.44-.16l-.42-.05.16-.43c.04-.24.13-.26.26-.05Z"/>
  <path class="cls-81" d="M2.6,7.02c.14-.03.23.09.27.37-.15.02-.29.06-.44.13.1.03.18.09.23.18.37-.33.61-.12.72.63-.06.22-.14.44-.24.66.1.24.07.38-.05.61.04.13-.02.3-.17.51.04.15-.12.04-.11.04.08-.08.54.15.25.36-.14.04-.31,0-.52-.13l-.21.07s-.09-.02-.14-.02l-.08-.09c.06-.13.11-.27.13-.4,0-.06-.03-.06-.07-.01-.03.36-.46-.09-.47-.32-.35-.3-.55-.36-.55-.66.43-.06.79-.27,1.11-.57h.18c-.12-.15-.33-.23-.62-.21-.11.02-.16,0-.17-.06-.07-.07-.15-.13-.25-.16.04-.09.14-.11.23-.12l.09.02c.07-.05.14-.13.2-.22.22-.11.42-.26.47-.51-.09-.15.13-.26.19-.09Z"/>
  <path class="cls-205" d="M2.01,5.35c.1-.14.17-.1.15.08l.04.14c-.07.15-.13.29-.19.43.12-.08.21,0,.09.11,0,.07-.03.07-.07,0l-.43.61-.09-.04c-.24-.24-.11.25-.37.22-.06,0-.14-.11-.1-.17s.12-.08.24-.18c-.21-.1-.41-.25-.32-.54.1.04.1.15.24.19.02-.15-.02-.23-.1-.25-.1-.03-.21-.01-.34-.03.09-.13.17-.22.25-.32.14-.03.25-.08.33-.15-.47-.67.5-.69.68-.11Z"/>
  <path class="cls-30" d="M2.75,5.84c.33.01.18.26.06.47.15.08.15.18.02.3l-.06.2c-.27.13-.53.28-.78.46-.16.11-.44.22-.57,0,.02-.29.1-.46.25-.52.03.1.52-.31.31-.4-.11-.04-.1-.12.04-.24.02,0,.05,0,.07,0-.04-.13.14-.15.25-.1.04-.16.27-.27.41-.17Z"/>
  <path class="cls-76" d="M3.18,6.52c.16.02.24.08.24.17.05.18-.17.2-.33.17-.13.06-.23.15-.3.26l-.19-.1c-.05.03-.17,0-.19.09-.11.09-.3.08-.41.16.24-.26.51-.51.84-.65-.07-.25.24-.32.35-.09Z"/>
  <path class="cls-235" d="M1.98,6.36c.08.17-.15.4-.31.4-.09.14-.17.3-.1.51-.06.02-.11,0-.15,0-.11-.17.03-.4.08-.58.23-.1.18-.43.52-.57-.02.08-.03.16-.04.24Z"/>
  <path class="cls-89" d="M1.73,7.84c-.04-.14.11-.18.2-.22,0,.06,0,.13-.02.19-.03.08-.12.04-.18.03Z"/>
  <path class="cls-15" d="M7.83,8.86c.07.02.07.05,0,.09-.14,0-.25.1-.37.24l-.65-.29c-.11-.05-.32.02-.3.14.24.07.31.28.21.62.15.18.18.33.09.45-.12.16-.21.13-.23-.07-.1.13-.17.12-.26,0-.5.33-.6.03-.67-.43-.04.21-.33.51-.49.25-.08.01-.09-.01-.04-.07-.13,0-.12-.09.04-.26l.06-.44.26.06c.14-.09.24-.14.26.05.09.27.2.21.38.02l.13.06c.02-.16.08-.61.16-.71.11-.12,1.37,0,1.43.04.09.07.1.21-.01.25Z"/>
  <path class="cls-175" d="M7.07,9.27c.07.1.05.2-.05.33l.17.17c-.11.08-.05.14.15.18-.04.24.07.43.34.59.03.15-.06.24-.27.26.21.51.08.96-.37.38-.39-.05-.53-.44-.12-.47l.05-.03c-.2-.23-.26-.41-.16-.56-.06-.11-.15-.29-.22-.42.05-.26,0-.44-.07-.65.13.02.23-.09.33-.05.12.04.2.16.22.28Z"/>
  <path class="cls-175" d="M8.26,10.36c-.16.17-.64-.11-.66-.32-.13-.07-.23-.08-.31-.03-.37-.22-.13-.56.2-.64.29.19.81.48.86.66.04.12.02.3-.09.34Z"/>
  <path class="cls-95" d="M7.48,9.36c-.03.19-.19.31-.31.48.14,0,.24-.08.31-.02.07.06.1.14.12.21-.04.07,0,.14.11.19.14.13.19.26-.03.3l-.52-.09c.39-.64-.76-.58-.09-1.16.13.03.3.02.41.09Z"/>
  <path class="cls-50" d="M7.6,10.04c.25.04.44.2.66.32v.16c-.19.19-.46.36-.57,0,.18.01-.48-.47-.22-.49.05,0,.1.01.13,0Z"/>
  <path class="cls-67" d="M8,8.87c.01-.22.09-.22.18-.02.13-.14.29.02.23.18.02.16.03.34.08.5-.07,0-.12.02-.21.04.1-.34-.17-.55-.45-.62v-.09c.05-.07.11-.07.16.01Z"/>
  <path class="cls-218" d="M11.43,9.01l-.06-.06c-.22-.17-.3-.34-.26-.51.07-.08.13-.23.26-.21.1.01.32-.08.3.09,0,.08-.07.16-.05.22,0,.02.04.05.08.02.03-.02.05-.06.11-.13.11.12,0,.26-.09.38.04.05.13.06.12.08-.07.2-.51.01-.41.11Z"/>
  <path class="cls-71" d="M11.76,7.85s.09.08.09.13c0,.1-1.13.17-.84.41.02.02.08.02.09.04.18.26.4.24.26.51-.06.02-.14.07-.2.03-.07-.05-.12-.13-.17-.2-.18.13-.26.03-.24-.17-.07-.03-.07-.05,0-.08-.25-.34-.25-.51,0-.5.02-.19.08-.29.2-.14.12,0,.22.01.32.06,0-.22.1-.23.24-.07.08-.03.24.11.25-.02Z"/>
  <path class="cls-152" d="M1.17,8.94v-.1c-.15-.21.09-.54.33-.57-.08-.14-.05-.18.09-.08l.26-.03c.07-.05.07-.16.12-.22.18.29.23-.03.49,0,.1.01-.03.19,0,.24.13.15.38.03.56.05-.07.25-.11.34-.1.54l-.58-.27c-.14.26-.38.29-.57.43-.22.16-.38.16-.6.01Z"/>
  <path class="cls-229" d="M2.19,9.92c.02-.08.04-.07.07.01.08.06.18.04.33.13-.2.05-.29.2-.39.36-.05.04-.1.09-.15.1-.07,0-.14-.07-.13-.16l.04-.3c-.11-.05-.21-.09-.25-.18s0-.19.02-.28c.34.29.29.34.47.32Z"/>
  <path class="cls-229" d="M3.07,10.51c.16-.03.17.03.02.11-.13.08-.32.1-.33-.08-.11-.11-.26-.1-.42-.08.04-.06.09-.11.16-.13.15-.05.32.21.57.19Z"/>
  <path class="cls-212" d="M10.75,8.61c.11.02.18.09.24.17-.04.34-.4.43-.67.57-.24,0-.4-.08-.15-.23.18-.12.1-.19-.08-.09-.42.17-.34-.62.17-.59l.48.18Z"/>
  <path class="cls-194" d="M10.84,9.44h-.42c.07-.14.35-.14.42,0Z"/>
  <path class="cls-193" d="M6.76,10.53c.13-.08.21.02.16.16l-.12.29c.34-.09.45.17.6.38l-.24-.81c.2.17.39-.04.52-.03.19,0,.39.11.58,0,0,.04,0,.08,0,.11-.11.1-.17.23-.16.4-.08.14-.09.31,0,.51.01.05-.01.13,0,.17.03.17-.04.36-.24.25.08.08.12.26-.01.32.16.26.12.34-.11.25h-.12c-.08-.25-.21-.42-.38-.5-.17.02-.64-.34-.51-.5-.09-.03-.11-.08-.05-.16-.12-.05-.23-.28-.18-.42-.18.2-.32.07-.16-.15v-.1c-.05-.29.22-.39.42-.16Z"/>
  <path class="cls-213" d="M11.25,2.33c.17.05.15.27,0,.35.13.08.08.23-.07.24-.11-.03-.2-.12-.24-.22-.06-.07-.13-.14-.21-.21-.16-.04-.14-.11.02-.13,0-.15.04-.13.15-.04.11-.02.23-.04.34,0Z"/>
  <path class="cls-85" d="M11.43,2.26c.02.23.12.44.08.67-.02.06-.06.09-.12.08-.06,0-.1-.04-.13-.09.11-.16.12-.24,0-.24v-.35s.11-.06.17-.07Z"/>
  <path class="cls-157" d="M11.02,4.57c.37-.17.65.17.8.05,0,.05.02.1.02.14-.2,0-.32.16-.37.34-.29.11-.51.38-.86.45.08.11.12.19.14.3-.1-.07-.21-.13-.34-.14-.11.12-.2.03-.25-.27-.12-.02-.17-.08-.15-.16.03-.13-.12-.12-.27-.22.14-.07.31-.1.37-.27.02-.06-.07-.1-.1-.09-.13-.17-.38-.06-.6-.22.17-.11.37,0,.57-.01.18-.01.4-.16.55.02.09.1.13.23.25.22.1,0,.14-.09.22-.13Z"/>
  <path class="cls-112" d="M10.74,2.49c.13,0,.29.02.35.16-.04.06-.1.12-.14.05-.15-.01-.31,0-.44-.09,0-.04.03-.09.08-.11-.04-.17.09-.15.16-.01Z"/>
  <path class="cls-146" d="M11.25,2.93s-.04,0-.06,0c.02-.08.04-.16.07-.24.05,0,.12-.11.14-.07.03.05.03.16.03.2.01.1-.09.14-.18.1Z"/>
  <path class="cls-110" d="M11.09,6.19c.04.07.01.21.07.28.11.15.27.23.34.38.06.29-.46.35-.42,0l-.22-.09c-.43.13-1.32-.08-.59-.5-.05-.24.22-.38.42-.26.14.04.27.1.4.17Z"/>
  <path class="cls-42" d="M11.5,6.86c.15.34.13.13-.07.57.07-.03.18-.07.25-.05.05.01.06.14.04.22-.01.05-.04.06-.15.06-.03.07-.04.15-.06.21-.08.03-.15.07-.24.07l-.05-.04c-.44.03-.56-.04-.37-.23l.04-.13c-.28-.06-.4-.18-.35-.35-.17-.15-.16-.18.07-.17.06-.24.1-.22.21,0,.02-.07.11-.11.26-.11v-.04c.1.12.31.02.42,0Z"/>
  <path class="cls-47" d="M9.92,5.77c.26-.13.42-.11.49.08.11.02.18.14.28.17-.14.08-.26.22-.42.26-.12.13-.23.17-.32.13-.11.02-.15-.02-.12-.13-.04.14-.27.08-.23-.08-.92-.16-.26-.6.32-.42Z"/>
  <path class="cls-128" d="M10.02,5.28c.12.04.22.11.42.08-.05.1-.13.12-.13.2,0,.06.08.11.12.15v.14s-.5-.08-.5-.08c-.08-.14.04-.15.16-.08.06-.11-.11-.2-.5-.27,0-.06-.01-.12.04-.25.11.16.28.07.4.11Z"/>
  <path class="cls-175" d="M8.26,10.63c-.09.12-.02.31-.16.4,0-.1-.11-.21-.08-.32.02-.08.18-.07.23-.09Z"/>
  <path class="cls-184" d="M8.33,3.58c.1.07.21.11.24.23s-.16.24-.15.34c.02.19.19.28.13.46-.07.21-.17.28-.37.32-.13.12-.27.1-.33-.07-.03.14-.07.28-.11.44l-.17.07c-.07.15-.12.21-.23.07-.03.07-.06.07-.08,0-.16,0-.17-.27-.08-.33-.15-.27-.08-.39.19-.37.07-.08.09-.15.05-.22-.6.22-.58-.19-.19-.54.11-.1.23-.19.36-.11.02.04.1.05.14.06.07-.04.14-.09.21-.15.1-.11.23-.2.39-.19Z"/>
  <path class="cls-6" d="M6.6,4.36v.07c.04.12,0,.18-.12.12-.03.14-.08.25-.14.38.07.03.06.05-.01.06-.07.16-.15.26-.26.27-.22.09-.25.04-.13-.16.03-.13,0-.21-.11-.26-.07-.16-.07-.27,0-.33-.28-.39-.11-.61.52-.66.02-.07.05-.07.07,0,.34-.09.31.25.17.49Z"/>
  <path class="cls-100" d="M7.18,5.1c-.12-.1-.21-.1-.26,0,.15.01.15.06,0,.1,0,.08-.02.07-.07,0-.15.24-.53.16-.53-.08-.13,0-.11-.06,0-.13,0-.02,0-.04.01-.06,0-.13.09-.26.23-.24-.05-.12,0-.15.1-.08h.08c.09,0,.19-.04.3-.15.09.12.21.14.37.06.06,0,.21-.05.22.1,0-.15-.19.43-.16.4-.02.02-.12,0-.12-.02v-.16c-.16.03-.08.22-.17.27Z"/>
  <path class="cls-195" d="M7.6,3.86c-.28.05-.48.34-.5.63.14.04.24.03.33.02-.44.28-.09-.2-.65.43l-.02-.34c-.02-.33.67-1.1.84-.74Z"/>
  <path class="cls-52" d="M5.75,3.16c0,.07-.03.15.06.19.1-.15.18-.27.34-.24.08.25.1.5.28.65.16,0,.16.06,0,.1h-.07s-.19,0-.19,0c-.38.08-.54.02-.49-.18-.12-.03-.12-.17,0-.42-.13-.01-.12-.16,0-.17.04-.03.07.04.07.07Z"/>
  <path class="cls-127" d="M6.6,4.36c0-.18-.06-.35-.17-.49v-.1c.17,0,.31-.1.5-.09,0,.29-.17.5-.33.68Z"/>
  <path class="cls-80" d="M6.67,4.6s-.09.05-.1.08c-.17.16-.26.02-.09-.14.04-.04.08-.08.12-.12.04.05.07.11.07.17Z"/>
  <path class="cls-198" d="M7.94,3.77s.08.11.05.14c-.07.05-.21.02-.26.02-.06-.07.03-.11.08-.13.04-.01.08-.02.13-.02Z"/>
  <path class="cls-231" d="M8.7,5.18c.06-.02.16.02.22,0,.26-.03.35.02.27.16.19.14.46.21.82.2.1.03.16.06.08.15-.06,0-.1.07-.16.08-.16-.05-.67,0-.69.07-.08.29-.19.44-.39.18-.23.01-.27-.05-.18-.26-.1-.04-.07-.11.08-.22-.06-.09-.19-.12-.39-.09l-.03-.11s-.04-.08-.03-.09c.11-.12.2.04.06,0-.02,0-.03-.03-.04-.07-.08,0-.08-.02-.02-.07.15-.04.31-.06.4.08Z"/>
  <path class="cls-170" d="M9.42,5.44c.05,0,.1-.02.15-.01.18,0,.39,0,.59.13.04.08-.03.13-.09.13,0-.18-.58-.12-.85-.18-.07-.02-.02-.12-.06-.17.13-.16.27-.12.24.1Z"/>
  <path class="cls-128" d="M9.42,5.44c-.08-.04-.16-.07-.24-.1-.06-.08-.18-.12-.27-.16.16-.08.36-.08.58-.06,0,.13-.05.21-.07.31Z"/>
  <path class="cls-21" d="M8.18,4.93c-.02.08.05.13.12.17l.02.07c-.32.21-.85.1-.47-.32.08-.04.31-.01.33.07Z"/>
  <path class="cls-44" d="M8.79,1.5c.07.13.04.64.01.84,0,.01-.03.02-.07.03-.05,0-.13-.02-.15.05-.07,0-.18,0-.21-.06-.04-.08-.02-.17-.03-.25.08-.1.2-.17.15-.34.02-.19.08-.28.18-.26.03-.14.08-.15.11,0Z"/>
  <path class="cls-126" d="M10.52,2.26c.09.02.17.06.24.1l-.02.13c-.05,0-.11,0-.16.01-.14-.13-.38-.06-.47-.25.07-.32.24-.19.41.01Z"/>
  <path class="cls-44" d="M9.34,2.43c.31-.1.92-.23.91.18.33.09.71.23,1.13.43.2-.09.31-.07.32.07.2-.07.34.17.31.37l.06.02c.06.05.09.15.11.27,0,.08.14.18,0,.25-.05.16-.11.26-.2.28-.33.23-.46-.32-.24-.6.06-.35-.18-.54-.32-.35.16.31-.61.5-.64.16-.03-.36-.36-.37-.96-.03l-.06-.06c-.09.12-.21.11-.36-.03-.13.08-.21.22-.22.42.16.04.15.14-.04.27.02.13.11.18.29.14l.07.09c-.14.08-.22.17-.24.28-.05.23-.36.26-.44.03-.28.24-.32-.39-.12-.57-.05-.27-.11-.54-.17-.82l-.21-.05c-.15.07-.19.02-.08-.11-.14-.07-.07-.17.08-.14.01-.07-.02-.1-.09-.09.02.18-.37.37-.51.27-.06-.01-.05-.07.02-.18.07-.14.16-.27.28-.4.17-.18.35-.19.55-.02h.26c.02-.18.18-.21.49-.08Z"/>
  <path class="cls-169" d="M10.51,2.61c.14-.06.38-.06.44.09.19-.06.26.01.24.22,0-.05.03-.04.06,0,.08.04.16.04.26,0,.01-.05.02-.09.08-.08.09,0,.12.13.17.18.11.12.07.16-.07.08-.38.01-.77-.3-1.1-.31h-.24s-.11-.19-.11-.19c.05-.15.19-.13.26,0Z"/>
  <path class="cls-233" d="M12.09,3.27c.05.11.04.18-.03.23-.12.06.03.24-.14.27.05-.22,0-.62-.23-.66l.07-.08c.15.02.24.14.33.24Z"/>
  <path class="cls-75" d="M12.18,3.77c-.1-.05-.11-.17-.11-.27,0-.08.02-.15.03-.23.13.15.08.31.08.5Z"/>
  <path class="cls-217" d="M8.83,4.63c-.06.19-.22.35-.13.55-.11.04-.24.01-.4-.08-.2.07-.33-.05-.12-.17.06-.13.13-.27.21-.4l-.14-.39c.12-.19.14-.38.08-.56v-.39c.13-.06.18-.23.41-.22-.05.27-.07.52.07.75.34.55-.46.59.01.91Z"/>
  <path class="cls-186" d="M9.76,3.42c0,.1-.05.23-.17.19-.05.04-.14.08-.16.16-.09,0-.18.01-.26.05-.03-.15-.25-.09-.3-.27.21-.13.37-.19.49-.38l.4.25Z"/>
  <path class="cls-117" d="M8.34,2.94c-.04.06-.05.12-.08.14l-.9.46.15-.28c-.08-.16,0-.21.23-.15.2-.11.36-.18.51-.27.13-.1.17-.05.09.09Z"/>
  <path class="cls-4" d="M10.11,2.25c.29.03.45.11.47.25.09.1.05.14-.08.11-.09,0-.17,0-.26,0-.16-.28-.58-.21-.91-.18-.16.03-.17-.03-.01-.09.04-.07.07-.07.09,0,.1-.12.19-.18.26-.02-.04-.22.04-.23.16-.05.05-.15.1-.18.17-.1.11-.12.16-.09.1.07Z"/>
  <path class="cls-130" d="M10.78,3.51c-.09-.05-.09-.17-.17-.25l-.86.31c0,.17.06.28-.04.37-.08-.13,0-.31-.12-.33.06-.05.11-.13.17-.19.13.07.87-.45.99-.19.04.08.01.2.03.29Z"/>
  <path class="cls-92" d="M8.74,2.37s.09.07.12.15c-.05.06-.09.29-.23.24-.08-.07-.02-.2-.04-.25,0-.03,0-.07,0-.1-.09-.23.04-.27.15-.05Z"/>
  <path class="cls-171" d="M8.34,2.94l-.09-.09c.08-.06.14-.29.24-.15.07.1-.09.21-.15.24Z"/>
  <path class="cls-186" d="M8.86,3.13c.05-.07.12-.03.15.01.06.1-.14.2-.13.2-.06,0-.07-.15-.02-.21Z"/>
  <path class="cls-59" d="M8.92,2c-.12.15-.07.33-.07.52-.05,0-.07-.02-.1-.05-.04-.04-.05-.06-.02-.1.12-.15-.09-.3-.07-.41.02-.12.19-.3.13-.46.06-.15.12-.14.13.02-.02.14.05.34,0,.48Z"/>
  <path class="cls-150" d="M3.36,6.93c.15.07.13.14-.03.13-.05.17-.12.17-.15,0-.44-.03-.2.4.16.3.03-.09.08-.08.11.01.13.05.16.19.1.31.22.03.29.17.19.43.07.03.06.06-.02.07-.05.24-.14.43-.28.59.03.1.06.13.08.08-.09-.22.1-.35.32-.32-.12-.08-.02-.25.08-.25.49.01.27.64,0,.84-.02.08-.05.08-.09,0-.04-.13-.15,0-.32.4-.05.04-.11.04-.18,0-.1,0-.01-.13-.01-.12-.04.11-.11.25-.22.2-.23-1.36.28-.5.08-1.57-.11.01-.32.06-.29-.08.06-.05.27-.14.14-.24-.09-.07-.26,0-.36-.01-.12-.07-.03-.17.06-.15.09.02-.24.16-.29-.03-.02-.15.18-.08.3-.2.07-.08-.09-.24-.14-.3.15-.09.33-.08.48-.16.15-.03.24,0,.28.06Z"/>
  <path class="cls-7" d="M3.83,9.12c.16.14.12.36-.12.67.27.2.21.35-.18.45,0,.08-.05.12-.12.13.17.11.17.14-.01.22,0,.1-.23.08-.32.02-.01-.03,0-.07-.02-.11-.06-.14-.12-.27-.32-.35.06-.03.12-.04.18-.05.05-.2.22-.5.41-.58l.43-.6c.08.04.06.13.07.19Z"/>
  <path class="cls-79" d="M2.25,9.94s-.05-.01-.07-.01c.06-.2-.21-.32-.24-.52-.05-.26.36-.37.52-.5.13-.11.22-.13.3,0,.18.31-.4.33-.02.59-.04.06-.09.11-.13.12-.06-.15-.18-.2-.27-.12-.15.14.11.19-.09.45Z"/>
  <path class="cls-229" d="M3.34,9.53c-.22.31-.1.57-.41.58.01-.13-.14-.05-.27-.12.18-.13.35-.21.44-.39.04-.08.18-.13.21-.27.1.08.02.14.03.2Z"/>
  <path class="cls-224" d="M2.67,7.7c-.06,0-.12.05-.16.01-.09-.06-.05-.12-.06-.19.13-.04.28-.02.4.04-.1.07-.15.09-.17.14Z"/>
  <path class="cls-189" d="M1.84,8.16c-.07.04-.15.05-.21.19-.04-.05-.04-.11-.04-.16-.07-.02-.07-.05,0-.08.03,0,.06,0,.08,0,.05.01.17-.02.17.06Z"/>
  <path class="cls-95" d="M2.01,4.51c.09-.1.14-.06.08.07.13.29.04.53-.09.76-.38-.14-.62-.47-.66-.29-.06.26.26.33.15.45-.07.08-.14.21-.23.25-.1.04-.18-.15-.27-.15.06-.06.08-.17.11-.25.04-.09-.2-.07-.22-.14-.1-.39.64-.28.68-.33.02-.02.01-.09.01-.12,0-.03,0-.06,0-.09-.17-.13.05-.43.26-.35.04.11.09.17.17.18Z"/>
  <path class="cls-160" d="M2.24,4.66c.12,0,.16.12.02.16.16.32.43.52.81.61l-.06.11c-.12.15-.59.44-.77.31-.19-.04-.21-.1-.06-.18l-.02-.24s-.1-.06-.15-.08c-.11-.13-.13-.31.08-.46l-.26-.18c.13-.05.22-.06.27-.13.09-.08.13-.04.14.08Z"/>
  <path class="cls-95" d="M2.23,5.84s.01.06-.08.08c.02.11-.07.13-.16.08-.05-.03-.13-.05-.17-.09-.03-.04-.03-.17.01-.18.12-.02.22,0,.26-.07.04-.09.05-.16.05-.24.15.08.07.27.08.41Z"/>
  <path class="cls-109" d="M2.16,5.92c.15-.08.32-.08.18.09-.08.03-.16.1-.25.1-.03-.03-.05-.09-.09-.11.01-.06.1-.09.16-.08Z"/>
  <path class="cls-94" d="M3,5.74c.5-.12.6.56.18.78-.09.01-.26.05-.35.09,0-.16-.21-.16-.27-.32.17-.14.29-.3.19-.45-.09-.14.18-.27.25-.09Z"/>
  <path class="cls-25" d="M1.66,6.75c.09-.14.14-.34.31-.4.07-.02.15-.12.19-.04.03.07.07.13.07.17,0,.07-.73.62-.58.27Z"/>
  <path class="cls-105" d="M3.01,5.54c.17-.03.18.05,0,.12.06.04.06.07-.02.09-.1-.03-.17.06-.25.09-.13.06-.27.12-.41.17.01-.09-.12-.08-.18-.09-.02-.05.04-.07.08-.08.28-.05.49-.27.77-.31Z"/>
  <path class="cls-166" d="M4.17,6.52c.18-.25.63-.11.34.16.02.23-.13.26-.25.09-.05.17-.12.17-.17,0l-.61.03-.06-.1-.25-.03s-.02-.07,0-.14l.27-.34c.12-.23.78.09.66.27s-.14-.26.06.07Z"/>
  <path class="cls-61" d="M4.09,6.77c.07.11.03.15-.08.08-.07.12-.21.13-.25-.01-.12.2-.2.28-.39.08-.09.02-.2-.01-.28-.06.12-.02.25-.1.33-.17.22.03.47-.06.67.08Z"/>
  <path class="cls-140" d="M7.84,8.41c.06-.02.11,0,.14.1l.02.35c-.05,0-.11-.01-.16-.01,0-.05,0-.14-.04-.13l-.21.07s-.95-.25-1.05-.12c-.27.34.03.74-.19.9l-.24-.21c-.05-.05-.17.18-.26.15-.14-.05-.08-.24-.11-.32.08-.05.15-.03.2.05.07-.23.17-.41.31-.54-.15.03-.03-.39.1-.41.12.03.18-.01.16-.11-.07-.02-.06-.04.02-.07-.09-.11-.12-.32.07-.34.17-.02.33.06.5.23.22.07.35.16.39.29.17,0,.29.03.36.11Z"/>
  <path class="cls-234" d="M5.66,9.61c.04.34.16.61.53.6.07.05.09.13.07.24.24,0,.27.07.09.25,0,.03-.01.07-.01.1-.25,0-.49.04-.72.14-.17-.08-.35-.15-.53-.22-.13-.06,0-.26.08-.35-.05-.21-.05-.38,0-.5.21-.02.26-.27.49-.25Z"/>
  <path class="cls-236" d="M5.5,7.86c.13,0,.18.03.27.1.07.06.19.61.22.74.16.1.14.28-.05.55-.02.04-.05.17-.09.07-.03-.05-.08-.08-.1-.12-.1-.15-.09.18-.26.13-.08-.02-.12-.08-.21-.14-.04.17,0,.28-.1.34-.07-.08-.06-.31,0-.42-.13-.16-.11-.76.14-.82-.16-.07-.11-.33.02-.43,0-.13.13-.12.17,0Z"/>
  <path class="cls-8" d="M6.59,10.04c.18.07.18.18,0,.25-.08.13-.17.23-.33.16-.11,0-.15-.13-.24-.15-.04.18-.07.24-.14.25-.07,0-.1-.04-.13-.08-.02-.03.04-.13.06-.19-.14-.2-.18-.44-.15-.67.17,0,.04.24.12.33.17.19.54-.03.6-.25.07.17.08.3.21.35Z"/>
  <path class="cls-230" d="M6.82,10.11c.09.17.17.34.24.59.03.06,0,.09-.05.05-.02-.02-.05-.03-.08-.06-.06-.05-.12-.1-.16-.16-.26,0-.32-.08-.17-.25-.03-.07.02-.17,0-.25.08.02.16.04.23.07Z"/>
  <path class="cls-162" d="M5.17,9.53c0,.08-.02.17-.04.26.02.14-.04.2-.13.07-.22.04-.24,0-.1-.18.03-.17.09-.3.18-.4-.06-.13-.05-.28.09-.17v.42Z"/>
  <path class="cls-56" d="M10.53,7.2c.17.19.44.2.73.35-.13.11-.28.12-.42.13-.13.03-.16.15-.09.35-.2.22.46.45,0,.5-.69-.18-.79-.78-1.43-.95-.1.1-.03.2-.08.28-.27.1-.48-.08-.35-.34-.03-.03-.08-.06-.12-.08-.2-.32.17-.37.43-.18h.53c-.07-.03-.06-.05.02-.06.15-.15.64-.2.77,0Z"/>
  <path class="cls-9" d="M10.84,7.67c0,.29.55.1.42.27-.18,0-.36,0-.52.08-.74-.52-.18-.08-.97-.41.04-.35,1.04,0,1.06.05Z"/>
  <path class="cls-225" d="M10.18,9.11s-.04-.07-.08-.09c0-.08-.02-.17.07-.25l.5.25c-.04.24-.34.17-.49.09Z"/>
  <path class="cls-28" d="M10.76,8.53v.08c-.11.31-.46-.24-.67.03-.1.13-.12.31.02.38.12-.11.17-.06.08.09.02.1.06.2.15.23-.17.09-.34,0-.55.01.24-.64-.82.28-.79-.48.04-.15.09-.28.16-.38-.13-.33-.09-.44.12-.31-.02-.11-.03-.23-.02-.33-.37-.42.4-.53.51-.16.34.21.81.51.99.83Z"/>
  <path class="cls-83" d="M9.27,8.19s-.09-.03-.19.03c.17.05.17.54.15.57-.05.06-.17.1-.25.09-.03,0-.06-.09-.1-.07-.05.03-.08.11-.14.14-.12-.05-.04-.23-.17-.26l-.02-.17c.17-.04.3-.09.41-.17-.22-.47.31-.61.31-.17Z"/>
  <path class="cls-54" d="M9.69,8.56c.2.03.22.17.19.26-.04.13-.17.14-.25.13-.15-.02-.09-.21-.09-.35-.05-.19.03-.17.16-.04Z"/>
  <path class="cls-174" d="M9.85,6.53c-.02.17-.11.34-.27.5.12.03.17.09.17.23-.87.48-.72-.29-.96.18l-.19-.09c-.3-.06-.49-.37-.1-.49l-.05-.15c-.19-.15-.32-.33-.01-.26.09-.1.29-.2.35-.07.36.01.76.08,1.08.15Z"/>
  <path class="cls-32" d="M6.94,7.29c.13-.02.27.11.31.23.17.18.37.29.5.49.11.18.14.31.09.4-.48-.06-.97-.24-1.26-.64-.1.13-.15.08-.1-.07-.18-.01-.18-.08,0-.12l.1-.21c-.11-.25-.23-.67.16-.44.19.14.25.25.18.35Z"/>
  <path class="cls-200" d="M8.77,6.1c.08.11-.03.23-.34.35-.34,0,.85.66.2.61-.06,0-.16-.06-.29,0,.12.07.25.15.25.29-.04.09-.08.22-.1.32-.2.09-.36-.09-.15-.23-.14-.03-.38-.18-.25-.33.02-.12.03-.24.02-.36-.25-.1-.38-.23-.39-.41-.4.38-.38-.56-.05-.14.07-.22.38-.27.52-.09.28-.21.47-.21.58,0Z"/>
  <path class="cls-142" d="M7.33,7.43s-.07.05-.08.09c-.06-.01-.16,0-.23-.05-.07-.04-.04-.13-.08-.19.01-.07.04-.07.08,0,.09-.12.17-.15.24-.08.03.06.03.17.08.23Z"/>
  <path class="cls-143" d="M8.78,7.44c.11-.12.17-.08.12.08l.1.15c-.1.22-.11.49-.02.8-.33-.05-.46.02-.4.22,0,.08-.02.18.01.26-.02,0-.05.01-.08,0-.16-.17-.26-.2-.33-.11-.06-.02-.13.03-.18.02-.14-.1-.29-.28-.02-.35-.07-.17-.17-.3-.29-.39l.06-.12c-.2.09-.64-.28-.5-.49-.13-.12-.09-.18.08-.09.03-.03.06-.05.1-.06.05-.02.84.27.95.31.03.01.07,0,.11-.01-.1-.14-.1-.34.1-.32.15-.19.23-.14.19.09Z"/>
  <path class="cls-222" d="M8.51,8.95c-.06-.03-.09.03-.09.08-.04-.07-.15-.16-.23-.18-.04-.12-.12-.28-.04-.38.18.24.39.28.37.49Z"/>
  <path class="cls-211" d="M9.25,7.86c.12.08.2.27.34.44-.16-.02-.22-.08-.32-.11-.06-.01-.12-.15-.22-.08-.17.12.26.5-.14.41-.08,0-.17,0-.27,0-.05,0-.03.11-.06.17-.04-.05-.12-.17-.06-.21.1-.07.21-.05.38-.06l-.19-.67c-.02-.07.23-.12.2-.24.12.14.2.24.35.34Z"/>
  <path class="cls-163" d="M8.34,7.43c.02.1.04.21.15.23-.06.37-.24-.06-.49,0-.28.07-.48-.06-.67-.23-.24.03-.27-.09-.08-.23-.08-.03-.08-.07,0-.1-.03-.15,0-.17.09-.05.1-.15.1-.16.24-.03.01-.1.05-.14.11-.11.15-.27.53.16.3.28l.34.23Z"/>
  <path class="cls-185" d="M7.98,8.52s-.14-.05-.14-.1c0-.08,0-.14-.05-.15-.11-.02-.18.03-.35-.01l.31-.23c.1.17.22.27.23.5Z"/>
  <path class="cls-211" d="M8.52,8.21c.1-.11.22.11.22.11-.03.06-.09.04-.13.05-.06,0-.17-.06-.09-.15Z"/>
  <path class="cls-8" d="M6.34,10.79c.04.11.06.11.16.15.06.14.12.29.18.42.01.05.03.1.05.16-.07.12-.21.09-.43-.08-.24,0-.42-.07-.54-.22-.09.08-.17-.18-.14-.29-.03-.22.21-.27.39-.28.11,0,.27-.02.33.15Z"/>
  <path class="cls-175" d="M6.59,10.28c.04.09.12.17.17.25-.15,0-.31.04-.41.16-.01-.08-.09-.17-.09-.25,0-.07.11-.14.16-.18.04-.04.12,0,.17.02Z"/>
  <path class="cls-111" d="M7.85,12.28c-.04-.13-.09-.22.01-.32.09.02.15.1.17.16.05.12.04.27-.08.33-.05-.09-.07-.14-.11-.17Z"/>
  <path class="cls-175" d="M6.68,11.37c-.08-.02-.24-.04-.29-.16-.03-.07.1-.17.11-.27.15.07.25.28.18.42Z"/>
  <path class="cls-73" d="M10.27,6.28c-.02.09-.11.13-.2.27.68.28.66-.09,1,.31,0,.01,0,.03,0,.04-.12,0-.21.04-.26.11h-.21c-.29.03-.57.08-.84.18l-.02.06c-.17-.03-.31-.11-.47-.2.24-.19.34-.43.58-.53-.07-.06.02-.12.1-.12.09-.1.21-.1.32-.13Z"/>
  <path class="cls-121" d="M10.6,7.03c-.02.06-.04.12-.07.17-.24.06-.52.04-.77,0-.24-.28.95-.37.84-.17Z"/>
  <path class="cls-110" d="M11.08,6.91c.04.07,0,.09-.04.1-.09.02-.16,0-.22,0-.09-.09-.05-.19.07-.17.08.01.14.01.19.06Z"/>
  <path class="cls-246" d="M9.92,5.77c-.24-.04-.48.07-.67.22.17.08.24.16.35.2-.02.06-.03.11-.06.11-.14.02-.64.02-.79.01.38,0,.74-.02,1.08-.05.03,0,.07.03.11.05.05.02.08.04.01.09-.03.03-.06.1-.1.12-.5.04-.65-.15-1.42-.08.02-.22.25-.16.34-.35-.13-.11-.08-.16.08-.09.1,0,.31.02.28-.12.03.11-.78-.55.8-.13Z"/>
  <path class="cls-115" d="M9.6,6.19l.23.08c.16.35-.65,0-1.08.05.29-.1.57-.11.85-.13Z"/>
  <path class="cls-24" d="M8.33,5.34c.19,0,.36.06.6.13-.06.05-.11.06-.17.07-.02.16-.22.15-.24-.01-.22.17-.53.18-.93.03l-.06.06c-.23.11-.48.01-.17-.18.08-.01.16-.04.23-.07.08-.24.62-.11.76-.02Z"/>
  <path class="cls-33" d="M7.51,5.62c.07.05.07.08-.02.11-.06.24-.12.46-.41.38-.02.07-.04.07-.07,0-.07-.03-.07-.06,0-.08-.07-.13-.22-.16-.35-.08-.11.4-.52-.19-.09-.15.03-.17.12-.21.26-.1.03-.13.17-.21.42-.25.03,0,.06,0,.08,0,0,.03-.01.09,0,.12.03.05.11.07.16.06Z"/>
  <path class="cls-134" d="M8.32,5.17s.15-.02.19.05c.03.05-.14.03-.18.12-.26,0-.51.09-.76.02-.03-.18.14-.43.28-.51-.02.07-.05.13-.05.21.17.11.35.13.52.11Z"/>
  <path class="cls-147" d="M7.18,5.1l.08.33c-.1.06-.21.12-.25,0-.04-.05-.07-.13-.08-.23v-.1c0-.13.19-.11.25,0Z"/>
  <path class="cls-145" d="M7.99,1.18c.08.06.14.14.18.24-.04.1-.13.14-.23.12-.08-.06-.12,0-.12.15-.05.06-.09.13-.16.16-.06-.13-.41.19-.52.16-.06-.02-.11-.1-.13-.17-.06-.17,0-.33.08-.49.02-.1.08-.15.17-.08.03-.12.13-.22.25-.23.13-.25.49-.13.48.15Z"/>
  <path class="cls-51" d="M5.67,2.85v.24s0,.17,0,.17c-.02.19-.07.28-.17.25v-.08c-.24-.12-.26-.43.01-.52-.03-.26.02-.37.16-.33v.27Z"/>
  <path class="cls-69" d="M7.66,1.85c.19.13.15.33-.14.6.23-.09.44-.21.63-.36l.2.02c.15.04.2.17.23.31.07.03.07.07,0,.1-.67-.1-.21.28-.83.42-.08.28-.35.41-.52.15-.28.24-.52.16-.49-.22-.09.24-.22.38-.39.41-.04-.12-.04-.24-.05-.42,0-.09-.13-.08-.18-.07-.17.02-.09.35-.38.39-.03.02-.05,0-.07-.07-.14.03-.13-.19,0-.24l.2-.39c-.03-.29.18-.36.45-.38.01-.45.4-.39.69-.23h.16c.3-.22.47-.22.49,0Z"/>
  <path class="cls-149" d="M7.76,2.93c-.02.06-.03.12-.02.18-.06.03-.1.13-.23.15-.1,0-.23,0-.29-.18l-.26.38c-.06.08-.12.15-.25.15-.07,0-.09-.09-.12-.22-.04-.02-.12,0-.15,0-.07,0-.07-.09-.09-.14.06-.23.17-.39.32-.6.09-.13.09-.07.21-.07.28,0-.19.43.15.49.04,0,.05-.08.12-.11.1.06.13.17.26.21-.02-.17-.13-.26-.02-.45.16.08.14.21.21.38.09-.03.1-.13.15-.18Z"/>
  <path class="cls-144" d="M8.51,1.26c.14.06.14.22,0,.5.19.09.13.48-.15.34-.12.14-.19.22-.39.31l-.89.43c-.13-.24.54-.53.59-1.01-.1-.2-.04-.22.16-.16-.06-.1,0-.2.12-.15.03-.18.08-.21.15-.08l.08-.04c-.15-.12-.1-.17.09-.16-.04-.22.01-.25.16-.08.11-.1.15-.05.09.08Z"/>
  <path class="cls-241" d="M7.09,1.17c.13,0,.1.11,0,.17.17.15.1.38-.08.49-.06.03-.1.09-.16.11-.06.02-.12-.05-.2-.07-.1-.03-.15.06-.16.13,0,.06.02.13.05.25-.77-.12-.54.44-.87.59-.07-.01-.07-.1,0-.27-.01-.14.01-.27.08-.4-.16-.02-.15-.08.02-.1.09-.07.12-.17.1-.31h.22c.15-.34.34-.48.57-.42.1-.15.3-.32.43-.17Z"/>
  <path class="cls-241" d="M6.42,2.6c-.04.07-.09.09-.12.05-.15-.12.12-.32.03-.28.04-.02.11.01.14.04.06.05,0,.12-.05.18Z"/>
  <path class="cls-216" d="M6.36,3.86c0,.06,0,.23-.1.23-.14,0-.29-.04-.37.05-.09.11-.06.26-.05.38-.12.05-.21-.06-.25-.17l-.08-.02v-.48c-.03-.14.04-.3.17-.17.15.17.43-.12.56,0,.06.05.09.12.13.18Z"/>
  <path class="cls-40" d="M6.07,5.26c.14-.1.17.05.11.19.17.02.16.09,0,.12-.05.23-.35.26-.42.01-.09.1-.17.06-.18-.08-.1.16-.27.08-.16-.09.08-.07.17-.15.25-.24-.04-.14.19-.18.27-.08.03.06.08.11.13.16Z"/>
  <path class="cls-196" d="M6.48,4.55c0,.06.03.12.09.14l-.05.16c-.02.07-.11.08-.19.08-.07-.06-.1-.15-.07-.26.02-.07.12-.11.21-.12Z"/>
  <path class="cls-132" d="M5.84,4.52c.02.11.08.23,0,.33-.02.07-.05.07-.08,0-.13-.02-.17-.19-.16-.31-.09-.04-.12-.17,0-.19.11,0,.19.08.25.17Z"/>
  <path class="cls-48" d="M6.33,4.99s.02.09,0,.13c.1.06.1.14.02.24.14.21-.02.29-.17.09-.04-.06-.07-.13-.11-.19.07-.11.1-.29.26-.27Z"/>
  <path class="cls-84" d="M5.95,5.11c-.15.01-.25-.03-.28-.13-.11-.12-.07-.18.09-.13h.08c.05,0,.11.02.15.07.04.05,0,.14-.04.19Z"/>
  <path class="cls-147" d="M6.86,5.2c.16.1,0,.23-.15.28.02.06,0,.06-.06.01,0,.08-.01.08-.07.03-.14.05-.22,0-.23-.16-.07,0-.09-.05-.09-.11,0-.04.04-.08.06-.13.13.18.34.14.53.08Z"/>
  <path class="cls-184" d="M7.01,5.44c.01.15-.22.2-.29.04,0-.11.09-.19.15-.28.02,0,.04,0,.07,0,.04-.01.13-.02.15.04.03.07-.04.14-.07.2Z"/>
  <path class="cls-164" d="M7.18,5.1h-.26c-.15-.04,0-.15.06-.17.14-.03.17.05.19.17Z"/>
  <path class="cls-201" d="M5.67,3.68c-.1.01-.12.1-.17.17-.02.05-.05.05-.08,0-.25-.12-.12-.22.08-.33l.17-.25v.42Z"/>
  <path class="cls-208" d="M8.75,5.54c.04.07.15.03.2.15-.16.02-.25-.03-.29.07-.09.25-.22.2-.24-.07-.13-.03-.1-.09.08-.17.07-.02.17.03.24.01Z"/>
  <path class="cls-97" d="M8.87.59c.07.01.06.03-.01.06.15.15.27.52.16.71-.02.06-.07.1-.09.16l-.13-.02h-.11c-.13-.03-.12-.14.03-.34-.09-.1-.1-.18-.05-.24.07-.1-.02-.13-.25-.08-.05.03-.05.06,0,.08.04-.07.07-.07.11,0,.07.02.07.05,0,.08.07.12.04.2-.11.17-.04.04-.13.04-.16.08-.09.14-.24.07-.27-.08-.17-.04-.3-.18-.48-.15-.1.03-.1-.01,0-.11-.03-.16.12-.28.26-.33-.05-.24.1-.28.24-.08.03-.04.06-.04.09,0,.16-.03.32-.06.48-.08.12-.04.35,0,.3.16Z"/>
  <path class="cls-68" d="M8.67.93c.03.08.09.14.14.24-.12.1-.12.22-.13.33-.03.09-.13.18-.18.26v-.5c0-.08,0-.17.02-.25v-.08c-.02-.15.23-.17.14,0Z"/>
  <path class="cls-29" d="M8.51,1.26s-.04-.08-.09-.08c0-.07.05-.14.11-.17l.11.17c.07.11-.06.11-.13.08Z"/>
  <path class="cls-29" d="M8.26,1.26s-.07.11-.09.16c-.06.02-.14.01-.16-.05-.03-.06-.03-.13-.02-.19.09.02.17.07.27.08Z"/>
  <path class="cls-29" d="M7.95,1.54c0,.08-.08.1-.12.15-.09.02-.06-.09-.07-.14-.02-.08.03-.16.13-.12.04.01.04.1.07.11Z"/>
  <path class="cls-159" d="M4.25,6.77c.13.02.23.09.33.17.04-.07.18-.09.2,0,.34-.05.23.37-.12.35.03.14.12.18.26.13.02-.17.07-.2.14-.08.05-.18.12-.24.2-.15.18-.07.03.32-.04.45-.05.11-.11.19-.23.12.06.15.12.53,0,.58-.04.2-.06.4-.08.59-.08.19-.14.37-.07.58.17-.07.18.06.05.16.05.18-.07.26-.24.25-.02.07-.05.07-.08,0-.46.2-.1-.81.01-1.05l.03-.65c-.13-.1-.22-.13-.27-.09l-.23-.26.06-.11-.08-.09c.07-.07.15-.3.16-.37,0-.04-.73-.15-.82,0-.27-.02-.43-.16-.12-.24l.03-.13c.13-.03.25-.09.39-.08.12.14.19.09.25.01.02-.04.03-.1.08-.08.04.01.12,0,.17,0Z"/>
  <path class="cls-107" d="M3.91,7.88c.03.07.06.15.11.23.06-.05.09-.04.08.05h.09c.01.1.06.14.15.11-.12-.24.07-.28.26-.09-.04.24-.04.47,0,.7.21.45-.3.98-.01,1.05.07.1.03.15-.08.1-.06.21-.14.29-.26.24-.17-.08-.24-.24-.23-.49.09-.27.06-.49-.09-.67-.02-.25.11-.46.15-.76-.06.09-.2.11-.24.17-.34.22-.33-.1-.12-.35l.02-.07c-.06-.24-.08-.41.17-.22Z"/>
  <path class="cls-96" d="M4.24,10.27c-.11.06-.24.09-.32.19-.1-.07-.22-.11-.34-.1.01.16-.14.17-.17,0,.01-.09,0-.19.09-.23.07-.03.13-.02.26-.05-.07-.14-.16-.2-.35-.28.26-.17.32-.44.42-.7h.09c.07.06.17,0,.23-.06.18.23.04.47.03.72,0,.18.11.34.06.49Z"/>
  <path class="cls-14" d="M3.33,7.06c-.19.52.74-.26,1.16.21l-.31.51.05.19c-.08-.02-.15.02-.22.15-.04,0-.08-.01-.1-.05-.03-.06-.02-.12,0-.18-.2-.11-.19-.16.02-.24.04-.3.27-.04.04-.11-.18-.15-.34-.21-.47-.16-.03.07-.05.07-.05,0-.04,0-.07-.01-.11-.01-.34.14-.7-.38-.16-.3.05.02.1.02.15,0Z"/>
  <path class="cls-224" d="M3.93,7.64c0,.08-.01.16-.02.24-.11.02-.14.13-.17.22-.07-.09-.06-.21-.14-.24-.1-.03-.23,0-.36-.02.13-.15.19-.3.2-.48.02,0,.03,0,.05,0,.16-.13.42.08.43.27Z"/>
  <path class="cls-224" d="M3.72,8.17c-.02.07-.03.14-.02.22,0,.07.06.13.14.13-.08.13-.19.25-.32.32-.11.03-.14,0-.08-.08-.01-.09-.07-.16-.06-.26l.34-.33Z"/>
  <path class="cls-224" d="M3.18,7.05c-.03.09-.15.02-.27.09.16.06.26.21.43.21,0,.12-.23.1-.36.09.05,0-.34-.58-.02-.47l.22.08Z"/>
  <path class="cls-229" d="M3.52,8.84c-.04.05-.04.18-.1.24-.05.05-.19.07-.17-.05s.2-.15.18-.27c.05,0,.13,0,.08.08Z"/>
  <path class="cls-227" d="M3.59,10.36c.17-.09.21-.02.15.16-.1.09-.22.06-.34.07-.03-.07,0-.15.01-.22h.17Z"/>
  <path class="cls-102" d="M2.3,4.6c.07.1.03.14-.06.06-.04-.04-.1-.05-.14-.08-.03-.02-.04-.07-.08-.07-.14,0-.16-.06-.08-.17-.08-.39.49.06.37.26Z"/>
  <path class="cls-116" d="M2.01,4.51c-.04.06-.08.11-.12.09-.11-.06-.07-.23-.05-.27.04-.07.07-.06.09.01.02.06.05.11.08.17Z"/>
  <path class="cls-63" d="M2.41,4.68c.17.08.29.16.34.25.19,0,.33.06.42.17.12,0,.2.04.25.11.34.17.23.22-.33.14-.41.07-.65-.14-.83-.53l-.02-.16s.01-.08.06-.06c.12-.11.17-.07.11.08Z"/>
  <path class="cls-37" d="M3.09,5.35c.6-.02.73.08.39.29-.18-.01-.34-.05-.47-.11-.07-.2-.28-.15-.53-.07-.12-.2-.2-.44-.22-.64.63.4-.04.16.83.53Z"/>
  <path class="cls-168" d="M3.52,5.77c.22-.05.42.12.49.32.11-.11.16-.07.08.08.32-.03.43.34.08.35,0,0-.21.06-.24-.04,0-.03.1-.03.14-.1l-.44-.18c-.1.25-.26.29-.45.32l.11-.45c-.12-.08-.28-.07-.16-.13.04-.02.07-.03.14-.08-.07-.07-.18-.08-.27-.11.01-.03,0-.06.02-.09.13-.11.51-.09.5.12Z"/>
  <path class="cls-77" d="M4.68,5.37c.08.26-.3.44-.51.29-.14-.07-.26-.03-.36.14l-.3-.03c-.16-.06-.33-.11-.5-.12.02-.04,0-.08,0-.12.19-.06.39.05.59-.07-.24-.02-.36-.05-.51-.12-.02-.23.65.22.33-.14.12-.21.31-.13.49-.01.26-.02.61-.02.76.18Z"/>
  <path class="cls-26" d="M4.61,6.1c.19-.08.3.05.3.24.16,0,.16.07,0,.1.01.16-.05.2-.16.09.08.17-.08.26-.24.15,0-.04,0-.08-.02-.17-.12.08-.22.08-.31,0,.08-.12.01-.26-.08-.35.01-.2.38-.14.52-.07Z"/>
  <path class="cls-53" d="M4.5,6.85c.07.01.1.04.08.08-.06.09-.16.07-.23.02-.08-.05-.11-.11-.1-.19.09,0,.17-.06.25-.09.22.03.21.11,0,.17Z"/>
  <path class="cls-53" d="M4,6.85c.06.05.06.07.03.1-.06.07-.19.09-.32.07-.08-.05.03-.11.04-.18.08,0,.17,0,.25.01Z"/>
  <path class="cls-237" d="M6.34,7.75c.13.04.18.23.18.37,0,.02,0,.05-.02.07.1.15-.02.21-.16.11-.1.1-.1.28-.1.41-.03.23-.21.22-.26-.01-.17-.19-.15-.44-.31-.72-.16.05.17,1.02-.21,1.05-.05,0-.13,0-.1-.09,0-.03.06-.08.06-.14l.07-.94c-.1-.1-.05-.13.08-.08.03-.14.08-.15.15-.02.14-.1.18-.05.09.11.16.08.22.33.18.5.19.1.12-.26.07-.42-.17-.11-.17-.19.02-.24.14-.16.18-.16.24.05Z"/>
  <path class="cls-138" d="M6.25,8.7c0,.23-.1.43-.31.54-.03-.19.05-.37.05-.55h.26Z"/>
  <path class="cls-139" d="M6.58,7.77c0,.12-.02.23-.07.34-.13-.08-.24-.22-.18-.37.02-.09.07-.11.14-.05.03.02.08.04.1.07Z"/>
  <path class="cls-240" d="M6.34,8.29s.12-.05.16-.11c.06.03.12.08.13.14.02.12-.09.12-.16.1-.05-.02-.11-.06-.12-.13Z"/>
  <path class="cls-151" d="M5.11,7.87c.08.1.15.23.21.42-.02.28-.14.55-.14.82-.08-.02-.09.11-.09.17-.16.07-.16-.07-.06-.18-.1-.2-.09-.52-.02-.74v-.58c.16-.19.21-.13.11.09Z"/>
  <path class="cls-214" d="M5.25,7.86s.05-.05.08,0c.1.14,0,.29-.02.43-.12.08-.17-.03-.2-.1-.03-.1-.02-.24,0-.31.03-.16.09-.16.14,0Z"/>
  <path class="cls-133" d="M5.5,7.69c.12-.13.17-.08.08.08-.01.04-.04.07-.08.08h-.25c-.16-.06-.08-.22.08-.18.04-.22.11-.21.17,0Z"/>
  <path class="cls-192" d="M5.09,9.28c0,.18.04.42-.18.4-.02-.04,0-.13-.05-.16-.06-.14-.07-.34.07-.41,0-.15.05-.15.1-.01,0,.06-.02.15.06.18Z"/>
  <path class="cls-43" d="M5,3.09c.21.1.18.25-.08.46l-.12.28c0,.15-.05.24-.13.28-.02.13-.08.26-.16.39.1.26.08.56-.24.43-.23-.05-.48-.07-.73-.03-.16.05-.3.05-.44.02-.09.12-.14.08-.09-.06-.19.07-.44-.05-.59-.17l-.11-.08c-.11-.12-.19-.4-.37-.26h-.09c.07-.17-.05-.29-.09-.42-.07-.25-.22-.48-.17-.74.2-.15.32.02.08.17.15.07.34.26.42.42.14.23.3.45.48.68l.13-.18c-.36-.44.52-.72.73-.32.17-.06.32.05.47.32.33-.32.6-.73.8-1.21.08-.05.15-.08.23-.03.09-.13.15-.08.07.07Z"/>
  <path class="cls-81" d="M3.52,1.67c.76.06.95.28.58.64v.2c.11.32-.18.27-.34.03-.27.18-.47.42-.6.72l-.39.03c-.28.18-.51.2-.7.06-.16.11-.29.12-.41.01,0-.07,0-.14-.08-.17,0-.04.03-.08.03-.12l.12-.17c.51.11.83-.03.95-.41.35-.12.42-.31.21-.57,0-.21.17-.31.52-.31.1-.13.15-.09.11.07Z"/>
  <path class="cls-232" d="M3.5,1.29c.09.18-.02.23-.33.15l-.08.08c-.08.13-.14.26-.18.39.26.24.19.43-.21.58-.13.51-.69.46-1.1.36-.02-.15-.04-.31.08-.42.17.02.34.02.5,0,.06-.11.01-.22-.13-.34.04-.43.19-.62.47-.58-.04-.15.1-.14.24-.09-.11-.09-.03-.16.09-.18.22,0,.44,0,.66.04Z"/>
  <path class="cls-197" d="M3.09,1.52c.1-.14.35-.12.33.08-.05.19-.3.21-.45.26-.03.24.25.27.53.35-1.11.28-.35.75-1.87.85,0-.07-.02-.14-.03-.21.3-.4.37.25.91-.12.09-.06-.01-.26.05-.34.11-.12.36-.04.44-.24-.18-.19-.27-.45-.1-.66.04-.03.15.03.19.03Z"/>
  <path class="cls-118" d="M2.51,1.52s-.03.09-.07.12c-.03.03-.09,0-.14,0-.06.02-.06.11-.02.13.02.01.08.05.1.1-.04.1-.22.15-.17.28.02.06.09.1.1.15.02.08-.11.08-.13.13-.17-.04-.31-.09-.43-.17.02-.04,0-.12.01-.17,0-.03,0-.06,0-.09-.04-.21,0-.27.22-.22-.1-.03-.09-.08.02-.1-.03-.18,0-.27.08-.25.02-.1.54-.11.42.09Z"/>
  <path class="cls-90" d="M2.17,2.44c-.04.1-.08.22-.18.2-.17-.03-.32-.04-.32-.21.04-.04.03-.13.08-.17.09-.02.19-.09.28-.07.12.03.16.15.15.24Z"/>
  <path class="cls-7" d="M3.92,10.46s-.14.03-.18.06c-.07-.04-.12-.09-.15-.16.03-.06.06-.11.09-.14.06-.06.14-.03.17,0,.08.06.09.16.07.24Z"/>
  <path class="cls-106" d="M6.4,6.76c.09-.09.19,0,.27.08.13-.09.17-.04.08.1-.32-.16.06.35,0,.52-.03.08-.18.09-.27.13-.16.02-.29-.07-.3-.24-.13-.03-.16-.17-.1-.41-.21-.05-.19-.12.02-.16,0-.07.01-.07.06-.01.08-.14.17-.16.23,0Z"/>
  <path class="cls-167" d="M6.18,7.35c.15,0,.31.08.3.24-.04.02-.04.09,0,.12-.05,0-.1.02-.14.05-.08,0-.16-.01-.24-.05-.22,0-.24-.1-.09-.25-.06-.16.07-.27.17-.09Z"/>
  <path class="cls-18" d="M7.09,7.11c.15.04.03.12-.08.18h-.08c-.07-.11-.17-.21-.18-.35.06-.18.34.06.33.17Z"/>
  <path class="cls-36" d="M7.49,5.72c.27-.14.47.4.18.47-.06,0-.12,0-.17.04l.22.11c.15.24.19.36-.14.35-.06.07-.17.04-.25-.01-.21-.13-.58-.38-.26-.57.02-.11.15-.14.22-.23.03-.04-.1-.2,0-.17s.14.04.19.03Z"/>
  <path class="cls-207" d="M8.01,5.77c.16.04.33.05.51.04.06.15-.05.25-.32.3-.17.07-.34.1-.52.09,0-.18-.06-.34-.18-.47,0-.03.03-.07.02-.11.14-.12.68-.02.5.15Z"/>
  <path class="cls-57" d="M8.09,7.11s-.05-.08-.08-.18c-.16-.06-.26-.13-.31-.2-.05.15-.08.11-.11-.04l.14-.11c-.04-.05-.11-.1-.09-.14.02-.05.07-.07.09-.1.25.12.49.26.67.46-.17.08-.21.22-.3.31Z"/>
  <path class="cls-82" d="M8.67,5.76c.06.08.14.16.18.26-.02.03-.06.05-.08.09-.19.03-.38,0-.58,0,.03-.11.17-.12.24-.24-.17-.05-.37.06-.42-.1.07-.13.29-.13.42-.08.07.05.15.06.24.07Z"/>
  <path class="cls-87" d="M8.09,7.11c.07.12.23.18.25.33-.09.13-.48-.13-.47-.21.01-.09.01-.14.17-.21-.12-.12-.24-.15-.34-.1-.08-.08-.1-.15,0-.19.21.06.45.13.39.38Z"/>
  <path class="cls-177" d="M7.58,7.03c-.07.05-.16.1-.24.03-.32-.41.49-.49.24-.03Z"/>
  <path class="cls-20" d="M7.34,6.67c.08,0,.17,0,.25.01.04,0,.08.03.11.04,0,.06,0,.13,0,.19-.04.02-.07.08-.11.11,0-.06.02-.15,0-.21-.02-.06-.16-.06-.21-.04-.09.05-.02.2-.03.28.03.06-.06.07-.09.05-.15-.05-.18-.12-.09-.23-.17,0-.07-.23-.01-.3.04-.04.13.04.18.09Z"/>
  <path class="cls-158" d="M7.26,7.11s-.01.07,0,.1c-.07.05-.16.08-.24.08l.08-.18c.02-.18.12-.17.17,0Z"/>
  <path class="cls-31" d="M8.51,5.53l-.08.17c-.13.08-.28.09-.42.08-.07-.21-.3-.17-.5-.15-.09-.29.4.1,1-.09Z"/>
  <path class="cls-209" d="M6.57,5.71c.07.01.07.04,0,.08-.01.04-.08.08-.07.11.03.04.12.04.15.04.11-.07.3-.06.35.08v.08c.13.24-.05.38-.25.17-.08.16-.17-.07-.16-.07.12.1.05.26-.1.23-.02.07-.05.07-.08,0-.12.04-.23.07-.33.08-.01.18-.14.17-.17,0-.11.12-.16.07-.08-.08-.03-.1,0-.19.08-.25-.1-.18,0-.58.26-.48.14-.2.25-.2.39,0Z"/>
  <path class="cls-158" d="M7.34,6.67s-.07.04-.1.05c-.06,0-.09.11-.07.15.02.3-.55-.01-.25-.19v-.07c-.16-.07-.22-.15-.15-.26-.07-.02-.07-.05,0-.08.11,0,.18-.09.24-.17h.07c-.01.32.25.27.26.57Z"/>
  <path class="cls-153" d="M7.26,5.44c-.09.15-.28.16-.42.25-.17.06-.24-.02-.18-.19.02,0,.04-.02.06-.01.11.03.2,0,.29-.04.07-.03.17.02.25,0Z"/>
  <path class="cls-12" d="M6.84,5.69c-.08.05-.17.08-.26.1,0-.03,0-.06,0-.08-.23-.03-.21-.15.02-.19.03,0,.05-.02.07-.03.06.07.12.13.18.19Z"/>
  <path class="cls-20" d="M7.01,6.02c-.09-.05-.25-.09-.35-.08,0-.11.14-.08.22-.09.12-.02.14.07.13.17Z"/>
  <path class="cls-242" d="M5.01,1.84l.08-.09c.22.15.44.29.66.43.06.05.08.12.08.21,0,.1-.07.15-.16.19-.06.09-.13.23-.16.33-.21.03-.21-.04-.12-.2-.08-.09-.09-.16-.05-.22-.12-.04-.83-.54-.81-.64.02-.08.11-.1.19-.09.05-.08.23,0,.28.07Z"/>
  <path class="cls-34" d="M7.76.59c0,.15-.16.22-.26.33-.03.11-.14.23-.24.18-.03.13-.09.2-.17.08-.13.02-.31.12-.43.17-.12-.03-.11-.08.02-.14l-.02-.1c.29-.11.56-.24.81-.39-.12-.07-.11-.13.03-.11.03-.07.06-.07.08,0,.04-.16.11-.16.17-.01Z"/>
  <path class="cls-238" d="M6.68,1.2s0,.1-.02.14c-.23.09-.38.27-.57.42.01-.14.17-.24.1-.39-.07-.18-.04-.18.13-.1-.07-.28.2-.18.36-.07Z"/>
  <path class="cls-65" d="M7.26,1.26c-.05.03-.09.09-.17.08v-.17s.14-.04.17-.08c.12-.02.12.04,0,.17Z"/>
  <path class="cls-241" d="M7.51,1.03c-.05.11-.15.17-.25.23v-.17c.06-.08.18-.11.24-.18v.11Z"/>
  <path class="cls-181" d="M5.34,2.5c.14.08.12.27.17.41-.05.16.01.35-.01.52-.05.19-.14.29-.27.31-.06-.22-.2-.15-.24.04.05.3,0,.52-.15.65,0,.2-.1.2-.17,0-.15-.07-.08-.22,0-.34,0-.37.29-.65.33-1.02-.03-.12.03-.18.16-.15-.06-.13-.14-.25-.25-.34l.11-.16c.05-.09.26-.03.32.07Z"/>
  <path class="cls-137" d="M5.5,3.43s0,.06,0,.08l-.08.33c0,.09-.1.2-.16.26-.04.03-.07.05-.07.04-.22-.43.01-.27.09.1.02.09-.13.22-.19.27-.15.18-.25.13-.25-.09,0-.34-.02-.71.24-.98.09.07.17.17.26.12.06-.03.1-.11.16-.15Z"/>
  <path class="cls-11" d="M5.59,4.35v.19c0,.11-.03.12-.06,0-.25.08-.42-.28-.11-.37-.14-.12-.09-.29.08-.33.17.1.08.34.08.5Z"/>
  <path class="cls-91" d="M5.33,5.25c.04-.07.07-.07.09,0,.17-.01.15.12,0,.17,0,.08.1.07.16.09.13.04.11.18,0,.26l-.09.08c-.07-.11-.11-.06-.17.04,0,.16-.07.18-.16.04-.18-.04-.21-.09-.08-.16-.05-.06-.03-.12.07-.2v-.23c-.11.12-.15.07-.07-.08.06-.18.16-.18.24-.01Z"/>
  <path class="cls-220" d="M6.59,5.52l-.02.19c-.13,0-.26,0-.39,0v-.13s.01-.09,0-.12c.07,0,.12-.05.17-.09.05-.05.09-.02.13,0,.06.04.11.1.1.16Z"/>
  <path class="cls-154" d="M5.95,5.11l-.27.08c-.06.02-.09,0-.08-.08-.16-.02-.16-.09,0-.12.02-.07.04-.07.07,0,.08.02.15,0,.24-.05.03.1,0,.14.04.18Z"/>
  <path class="cls-204" d="M5.67,5.19c0,.08-.03.16-.08.21-.05.04-.11.04-.17.03v-.17c.02-.1.07-.15.17-.15.03.02.06.05.08.08Z"/>
  <path class="cls-72" d="M5.75,4.85s-.07.08-.09.13c-.02,0-.05,0-.07,0-.14.03-.17-.03-.06-.13-.09-.09-.16-.3,0-.3.03.04.05.04.07,0,.12.06.18.18.16.31Z"/>
  <path class="cls-23" d="M5.42,3.85h.08c-.07.1-.07.21-.08.33-.11.12-.18.09-.16-.07,0-.05-.02-.13.01-.2.02-.04.09-.06.15-.07Z"/>
  <path class="cls-10" d="M8.5.36c.06,0,.09.03.07.07-.1.15-.33.14-.48.08-.06-.2.02-.24.17-.08,0-.14.06-.16.17-.07.02-.07.05-.06.08,0Z"/>
  <path class="cls-55" d="M8.92.36c0,.08-.02.16-.05.23-.11-.03-.21-.09-.3-.16-.03-.01-.06-.04-.07-.07.1-.1.31-.09.42,0Z"/>
  <path class="cls-10" d="M8.67.93c.01-.06-.03-.08-.08-.06-.02.01-.04.04-.07.06-.03.01-.07,0-.11,0-.07-.02-.07-.05,0-.08.08-.03.2-.14.32-.06.06.04-.03.14-.07.14Z"/>
  <path class="cls-29" d="M8.42.84v.08s-.09.08-.12.08-.09-.07-.12-.12c-.02-.03.24-.11.25-.04Z"/>
  <path class="cls-215" d="M4.6,8.88c-.26-.1-.23-.38-.15-.74-.07-.06-.1.07-.11.13-.04.06-.12.02-.24-.11-.03-.01-.05-.04-.08-.05-.08-.18.11-.23.17-.34.04.1.13.15.21.23.09.09.17.09.33-.04.13.12.1,1.1-.12.92Z"/>
  <path class="cls-13" d="M5.17,6.77c.11.03.13.14,0,.17.07.15,0,.29-.1.41-.04.03-.09.06-.14.08-.13.02-.2.02-.26-.13.05-.12.26-.2.12-.35-.08-.04-.07-.09.05-.18-.07-.02-.07-.04,0-.07.02-.07.05-.07.08,0,.07-.11.18-.03.25.07Z"/>
  <path class="cls-39" d="M5.5,6.94c.11.08.14.28,0,.33,0,.18-.06.32-.17.41l-.08.18h-.14s-.07-.09-.11-.09c.12-.19.34-.35.27-.58,0-.11.02-.2.07-.26,0-.18.13-.18.17,0Z"/>
  <path class="cls-148" d="M4.93,7.43c-.11.19-.23.36-.4.52-.07-.27.05-.46.14-.65.05-.02.12-.04.19,0,.04.02.12.07.07.14Z"/>
  <path class="cls-120" d="M4.92,9.11c0,.14-.04.27-.07.41-.2-.14-.11-.45.07-.58.07.03.07.13,0,.17Z"/>
  <path class="cls-215" d="M5.02,9.1h-.1s0-.1,0-.16c.03-.2-.1-.46.08-.59,0,.25-.01.5.02.74Z"/>
  <path class="cls-45" d="M5.27,7.19l-.2.15c0-.14.03-.28.1-.41.13-.17.15.1.1.26Z"/>
  <path class="cls-182" d="M4.79,6.95h-.2s-.08-.05-.08-.09c.06-.13.23-.2.34-.09,0,.06-.02.12-.05.18Z"/>
  <path class="cls-14" d="M4.34,8.27c.02.07-.08.13-.12.09-.06-.06-.08-.15-.12-.2l.07-.1c.15-.2.02.29.17.21Z"/>
  <path class="cls-221" d="M3.93,7.64c-.06-.08-.45-.07-.22-.24-.13.06-.14-.02-.21-.02-.08-.12.11-.11.18-.11.58-.02-.22.15.5.19-.06.12-.16.14-.25.19Z"/>
  <path class="cls-119" d="M4.25,5.03l.1-.08c.15.09.32.11.52.05.03-.11.09-.09.09.03.2.07.21.1.03.22.07.15,0,.23-.16.19-.1.12-.17.1-.15-.07-.23-.12-.49,0-.76,0-.18-.01-.33-.23-.5-.15-.09.04-.19-.09-.25-.11,0-.06.05-.07.17-.02.1-.42.67-.21.92-.05Z"/>
  <path class="cls-62" d="M3.09,4.92c.2-.1.28-.08.24.17-.05-.02-.12.03-.17.02-.17.01-.3-.05-.42-.17.03-.06.11-.09.25-.08.03,0,.07.04.09.06Z"/>
  <path class="cls-86" d="M3,4.85c-.04.1-.16.09-.25.08-.1-.09-.3-.09-.34-.25l.59.17Z"/>
  <path class="cls-26" d="M4.17,5.67c-.02.09,0,.18.08.27.01.12-.14.17-.25.16-.21-.02-.37-.16-.49-.32,0-.07.05-.15.12-.14h.2c.09.02.03-.08,0-.08-.05-.01-.11,0-.16-.08.17-.06.4.04.5.2Z"/>
  <path class="cls-188" d="M4.25,5.94c.07-.09.34-.04.36.09.17-.03.18.04,0,.08l-.52.07-.08-.08c.02-.12.14-.16.25-.16Z"/>
  <path class="cls-165" d="M4.83,5.44c.12-.11.17-.06.09.08.21.08.24.17.08.25.05.1.01.16-.1.15-.02.22-.1.22-.23.03-.35,0-.52-.1-.51-.29.18-.07.33-.21.51-.29.05.03.11.03.15.07Z"/>
  <path class="cls-74" d="M4.85,6.7v.07c-.11.06-.22.09-.34.09v-.17c.1-.03.17-.08.24-.15.15-.04.18.03.1.16Z"/>
  <path class="cls-141" d="M5.9,7.42c.05-.07.09-.06.11.02.03.08.11.17.09.25-.06.32.25.62,0,.95-.17-.07-.06-.21-.09-.29.03-.22-.04-.34-.18-.5-.03-.04-.06-.08-.09-.11-.15-.01-.16-.13-.05-.23-.08,0-.08-.04,0-.08.06-.22.11-.23.21-.02Z"/>
  <path class="cls-136" d="M6.01,8.35c-.06-.17-.18-.32-.18-.5.11,0,.23.04.24.14.02.13.05.3-.06.36Z"/>
  <path class="cls-129" d="M5.74,7.75c-.03.06-.1.05-.15.02-.01-.04-.04-.07-.08-.08-.16-.07-.09-.22.08-.17-.02-.16.05-.16.1,0,.03.07.05.15.05.23Z"/>
  <path class="cls-2" d="M5.59,7.52l-.08.17h-.17c-.05-.19-.03-.35.17-.42.11,0,.11.15.08.25Z"/>
  <path class="cls-144" d="M3.76,2.53c.35.14.51.42.28.75.22.37.21.76-.26.5-.1.21-.22.26-.36.17-.24-.01-.5-.06-.72.12.05.07.16.12.16.22,0,.05-.07.08-.06.12.01.04.06.1.13.16-.14.13-.24-.1-.36-.11-.25-.2-.34-.43-.28-.67l-.2-.02c-.1-.02-.2-.04-.29-.09-.12-.07-.13-.21-.13-.33.16-.11.37-.12.49-.3.14.62.31-.11.92.1.05-.36.34-.69.69-.62Z"/>
  <path class="cls-228" d="M4.93,2.79c.14.14.14.22,0,.23-.46.53-.51,1.29-1.1,1.44l-.41-.52c.14-.08.17-.25.32-.37.17.01.2.21.35.13-.2-.27-.33-.48-.08-.69-.09-.2-.21-.32-.26-.49.13.03.24.1.33-.03.28-.4.7-.15.84.28Z"/>
  <path class="cls-123" d="M4.67,4.45c.16.07.36.23.25.41.06.05.05.1-.05.14-.02.19-.14.19-.31.22-.13.02-.21-.18-.31-.18-.14-.04-.14-.08.01-.1.42-.36-.28-.32.41-.83.07.11.04.21,0,.34Z"/>
  <path class="cls-124" d="M2.57,4.45c-.17-.02-.25-.12-.4-.23-.1-.08-.17-.31-.08-.45.03-.05.1-.18.16-.19.07,0,.15.09.2.12.08.06-.06.2-.06.26.06.16.25.3.17.49Z"/>
  <path class="cls-135" d="M4.26,4.93v.1c-.16,0-.36-.14-.51-.13-.14,0-.25.26-.42.18-.09-.04-.17-.09-.24-.17.08-.01.17-.03.16-.11,0-.07-.09-.1-.06-.23.2.14.8.29,1.07.36Z"/>
  <path class="cls-108" d="M5.16,2.94c-.02.09-.05.16-.16.15,0-.03-.05-.06-.07-.07v-.23c.14-.13.29-.02.23.15Z"/>
  <path class="cls-191" d="M5.02,2.43c.04.13.1.22.32.27-.07.1-.17.14-.19.24-.08-.04-.14-.12-.22-.15-.11-.05-.14.12-.32.15-.02-.14.13-.35-.02-.44-.13-.04-.37,0-.51,0-.1-.04-.15-.15-.21-.24-.06.06-.06.15-.1.16-.05.02-.09-.01-.09-.04-.05-.37.37-.1.47-.38.14-.4-.65.03-.64-.33-.05-.31.52-.11.75,0,.1.05.72.59.78.68,0,.02,0,.05-.02.08Z"/>
  <path class="cls-161" d="M4.73,1.77s-.03.07-.04.13c0,.05.07.05.14.08.14.07.11.31.27.36.12.04.28.03.25.17-.09-.05-.22-.03-.32-.07-.07-.23-.43-.23-.55-.38-.23-.3-.59-.55-.95-.38l-.11-.07c-.1-.06-.21-.08-.33-.08-.2-.33.21-.07.41-.23h.09c.29-.05.84.24,1.13.4.01,0,.01.04,0,.08Z"/>
  <path class="cls-173" d="M6.67,6.52c.11-.03.24.05.25.17.03.05,0,.16.08.21.04.03.11.03.16-.03.09.04.08.14.09.23-.05-.03-.12-.05-.17,0l-.33-.17-.08-.1c-.11-.04-.21-.12-.14-.23-.07-.01-.07-.04,0-.07,0-.13.1-.18.14-.02Z"/>
  <path class="cls-19" d="M6.18,7.35c-.07,0-.12.05-.17.09-.04,0-.08-.02-.11-.02-.19-.06-.12-.35.1-.32-.1-.13-.09-.21.08-.17.08.12.1.27.1.41Z"/>
  <path class="cls-244" d="M6.11,6.78l-.02.16s-.07.11-.08.17c-.12.11-.16.06-.08-.08-.2.04-.23-.08-.17-.25-.11-.12-.07-.17.07-.09.11-.08.26-.05.28.1Z"/>
  <path class="cls-202" d="M6.09,6.52c.13-.09.18-.04.09.09.16,0,.16.14-.01.15-.02,0-.04,0-.06.01-.1.01-.22,0-.28-.1-.18-.09-.08-.19.09-.17h.17Z"/>
  <path class="cls-239" d="M6.41,6.68c.07.02.07.05,0,.07-.08,0-.15,0-.23,0v-.15c-.02-.1.09-.17.17-.09.11-.09.16.07.07.16Z"/>
  <path class="cls-176" d="M6.67,6.84c-.1.01-.2-.01-.27-.08v-.07c-.03-.14.03-.17.13-.07.08.05.13.14.14.23Z"/>
  <path class="cls-245" d="M5.84,6.44l.08.08-.09.17-.07.09c-.02.07-.05.07-.08,0-.05.28-.41.04-.17-.08-.15-.05-.16-.12,0-.17l.33-.08Z"/>
  <path class="cls-156" d="M6.77,6.27v.08c.12.15.09.21-.1.17l-.14.02c-.13.03-.15-.03-.03-.1.08-.08.08-.18.1-.34.09.05.1.13.16.18Z"/>
  <path class="cls-41" d="M6.42,6.44c.09.1.04.15-.08.08l-.16.09s-.06-.06-.09-.09c.11-.07.25-.24.33-.08Z"/>
  <path class="cls-219" d="M6.51,6.44l.03.1s0,.05,0,.07l-.12.07-.07-.16.08-.08h.08Z"/>
  <path class="cls-101" d="M6.92,6.69c-.09-.03-.19-.08-.25-.17.01-.07.04-.13.1-.17-.05.14.63.35.15.34Z"/>
  <path class="cls-60" d="M3.91,1.03h.08c.09-.03.14.04.14.21.14.14.31.25.51.33.12-.11.32.04.35.18v.09c-.08-.03-.19-.01-.27-.07-.55-.38-1.12-.24-1.14-.48l.02-.1c.11-.01.2-.15.31-.16Z"/>
  <path class="cls-3" d="M4.84,4.44c.09,0,.17.07.25.09.15-.33.5.12.32.31-.04.18-.38.11-.49.02-.12-.1-.31-.24-.25-.41h.17Z"/>
  <path class="cls-181" d="M5.26,4.11c.05.03.11.04.16.07-.01.14,0,.27.11.37v.3c-.04.15-.1.14-.13-.02.04-.2-.15-.27-.32-.31-.12-.12,0-.22.05-.34.05-.16-.16-.37,0-.51.08.17-.03.36.12.43Z"/>
  <path class="cls-203" d="M5.5,6.69s-.01.12.04.14c.04.01.1-.04.13-.06.08.06.15.25,0,.25-.09.18-.13.08-.17-.08h-.17c-.07-.03-.13-.08-.17-.17-.07-.02-.07-.05,0-.08.01-.04.06-.05.08-.08.14-.08.22-.09.25.08Z"/>
  <path class="cls-210" d="M6.18,5.58c.16.01.16.08,0,.13-.13.14-.07.38-.26.48-.06.14-.15.14-.27.1-.04.11-.09.16-.23.14.07.16-.01.21-.17.18.11.11.06.16-.08.08-.13.01-.21-.03-.18-.16-.12.1-.16.05-.08-.08-.01-.03,0-.07,0-.1.08-.19.24-.35.48-.46-.03-.14.03-.16.1-.03.02-.07.05-.1.09-.08.03-.13.09-.19.17-.18h.42Z"/>
  <path class="cls-46" d="M5.76,5.59c0,.1-.08.17-.17.18v-.26c.05.01.17,0,.17.08Z"/>
  <path class="cls-93" d="M5.39,5.88c0,.29-.23.39-.48.46-.13-.03-.25-.11-.3-.24.04-.03.04-.05,0-.08-.04-.06-.02-.08.07-.07.07-.01.15-.03.23-.03.07-.12.18-.09.27,0,.05,0,.11-.02.16-.04,0-.07.02-.07.06,0Z"/>
  <path class="cls-16" d="M4.99,6.53c.11.12.11.2-.06.17-.02,0-.05,0-.08,0-.04-.05-.07-.1-.1-.16.04-.04.11-.05.16-.09.02.03.05.06.08.08Z"/>
  <path class="cls-58" d="M5.92,6.18s.05.09.05.13c0,.07-.07.11-.13.12,0,.2-.24.28-.33.08-.12.05-.16,0-.08-.1.04-.1.06-.24.16-.28.12-.06.24.03.34.04Z"/>
  <path class="cls-27" d="M5.5,6.52c0,.05,0,.11,0,.17-.09-.02-.17-.04-.25-.08.05-.06.14-.11.17-.18.05-.03.08.06.08.1Z"/>
  <path class="cls-206" d="M5.49,5.85l-.1.03h-.06s-.08-.12-.06-.16c.03-.05.16-.05.2-.03.06.03.05.11.03.17Z"/>
  <path class="cls-178" d="M5.74,5.89c.07-.08.14-.05.18,0,.04.06,0,.13-.12.13-.06,0-.19,0-.06-.13Z"/>
  <path class="cls-182" d="M5.17,6.69s0,.06,0,.08c-.08-.01-.17-.04-.25-.07l.06-.17c.06.05.13.1.18.16Z"/>
  <path class="cls-49" d="M5.4,4.84s.09,0,.12.02c.04.03.06.08.06.13v.12c0,.05.01.14-.05.16-.04.02-.09,0-.12,0-.03,0-.06-.01-.09,0-.14-.05-.26-.12-.37-.22l-.09-.03s-.02-.06-.03-.1c0-.03.04-.04.08-.03.16,0,.32-.01.49-.02Z"/>
  <path class="cls-247" d="M5.33,5.25c-.08,0-.16.03-.24.01-.01.16-.08.15-.1-.02-.03-.07-.03-.14-.03-.22.09-.03.2-.07.27-.02.08.07.09.16.1.24Z"/>
  <path class="cls-104" d="M5.09,5.77c-.02.07-.04.07-.08,0-.04-.08-.07-.16-.08-.25.06-.13.14-.19.24-.18.08.04.1.12.08.2-.02.09-.08.18-.16.23Z"/>
  <path class="cls-187" d="M5.16,5.34l-.08.21c-.03.08-.1,0-.16-.04l-.09-.08c.04-.07.09-.14.16-.19l.1.02s.04.06.08.08Z"/>
  <path class="cls-206" d="M5.09,5.77c.02.05.05.11.08.16-.09.01-.18,0-.27,0,0-.03,0-.07.01-.1.01-.04.04-.06.08-.05.03,0,.06,0,.08,0Z"/>
  <path class="cls-183" d="M5.34,6.94c.01.09-.02.18-.07.26-.02-.09,0-.24-.1-.26.02-.05-.01-.12,0-.17.04,0,.08,0,.12.01.07.03.04.1.05.16Z"/>
  <path class="cls-22" d="M5.67,7.02c.07.02.06.05,0,.08.19.07.19.25.02.34,0,.02,0,.05,0,.08h-.1c-.11-.03-.08-.16-.08-.25v-.33l.17.08Z"/>
  <path class="cls-155" d="M4.17,5.67c.17.28.41.09.51.29-.02.03-.04.05-.07.07-.11-.05-.26-.02-.36-.09-.11-.07-.24-.12-.34-.21.12-.08.2-.04.26-.06Z"/>
  <path class="cls-88" d="M5.92,7.02l.08.08-.1.32c-.07,0-.14.01-.21.02-.01-.11-.02-.22-.02-.34,0-.22.07-.24.25-.08Z"/>
  <path class="cls-248" d="M5.92,7.02c-.09.01-.17.04-.25.08v-.33h.08c.01.11.09.18.17.25Z"/>
  <path class="cls-161" d="M2.84,1.25c0,.08-.02.14-.09.18-.04-.1-.16-.1-.25-.12.08-.08.23-.06.34-.06Z"/>
</svg>